<?xml version="1.0"?><!DOCTYPE svg PUBLIC "-//W3C//DTD SVG 1.1//EN" "http://www.w3.org/Graphics/SVG/1.1/DTD/svg11.dtd"><svg id="svg" xmlns="http://www.w3.org/2000/svg" xmlns:xlink="http://www.w3.org/1999/xlink" width="1396" height="782"><rect width="1396" height="782" style="fill:#1B382D;stroke-width:0;stroke:rgb(0,0,0)"/><path style="fill:#96B0A2;fill-rule:evenodd;stroke:#FFFFFF;stroke-width:0px;stroke-linecap:butt;stroke-linejoin:miter;opacity:1" d=" M 1197.9877063188123,387.4937869355782 L 1197.9877063188123,394.5062130644218  L 943.7069130579245,392.7230439422707  L 943.7069130579245,389.2769560577293 Z M 1197.9601688385771,397.3110676514768 L 1197.8224890205604,404.3221420684402  L 1023.6280989656868,399.6792089015397  L 1023.717795644791,395.11158162535116 Z M 1197.7398871960777,407.12591533065904 L 1197.4645806382352,414.1329351330927  L 991.4188784472791,404.58983228254584  L 991.5806119206079,400.47344050745596 Z M 1197.3269463140805,416.9345461625105 L 1196.9141191523308,423.93481001089583  L 1028.9630578845004,412.84785920785504  L 1029.2369137137614,408.2041166471188 Z M 1196.7215053891564,426.7331787331297 L 1196.1713167762289,433.72398789249695  L 886.1660692920024,407.137430228287  L 886.3738830002136,404.4969067047708 Z M 1195.9237978303067,436.51803548313507 L 1195.2364598743852,443.4966948634772  L 914.6479320270355,413.8730217878629  L 914.947407947992,410.83239173540426 Z M 1194.9341311689805,446.2853441639863 L 1194.1099088519309,453.2491633592674  L 979.4915709067005,426.32002580270535  L 979.9592326700779,422.36877151446464 Z M 1193.7528869405153,456.03133929225766 L 1192.7920980157305,462.97763361761554  L 892.8659850413737,419.3472442912737  L 893.2443764526267,416.6115569358642 Z M 1192.3805205370468,465.75226360130375 L 1191.2835354069468,472.6783551280472  L 1007.6626303228486,442.2742317023189  L 1008.3512713911775,437.9263231140892 Z M 1190.8175610319477,475.4443694897571 L 1189.5848026051824,482.3475880777584  L 932.1268858921575,434.50607711439386  L 932.7140112263547,431.21828411901174 Z M 1189.0646109758595,485.10392046630005 L 1187.6965545042692,491.98160479338486  L 803.2475519537085,412.7033724233973  L 803.5415801498331,411.2251928612216 Z M 1187.122346164398,494.7271925901533 L 1185.6195190597944,501.57669117809064  L 918.6833736163687,441.04401238811784  L 919.3635124181245,437.9441150360161 Z M 1184.9915153776208,504.3104759067256 L 1183.3544970084602,511.1291481434238  L 1013.8993436848596,469.18763252391864  L 1014.9648185730191,464.7496102172301 Z M 1182.672940091358,513.8500758778723 L 1180.9023615593837,520.6352930353847  L 1029.8400912750344,480.08257837964175  L 1031.0567946677504,475.41992344128323 Z M 1180.1675141605187,523.3423148062101 L 1178.2640580574598,530.0914610541599  L 900.9266895177909,449.7705227121878  L 901.7309596670053,446.918795871109 Z M 1177.4762034744922,532.7835332529389 L 1175.4406036189102,539.4940066669717  L 925.0825392870669,461.62741594923494  L 926.0507208381838,458.4357491091577 Z M 1174.6000455847798,542.1700914486257 L 1172.4330867391682,548.8393050135007  L 725.3099560240897,400.0857585595868  L 725.4346934263363,399.7018563102225 Z M 1171.5401493049976,551.4983706964049 L 1169.2426668732414,558.1237533033386  L 818.1062773743517,433.5950646686515  L 818.6918399339605,431.9064441403375 Z M 1168.2976942834096,560.7647747670544 L 1165.870573988721,567.3437722049318  L 809.2583800390289,432.9340807399553  L 809.8355427997573,431.36961262010976 Z M 1164.8739305481492,569.9657312854109 L 1162.318108091604,576.4958072254831  L 889.2574185687486,467.4076365470391  L 890.3101882041349,464.71783090390085 Z M 1161.270178025311,579.0976931075886 L 1158.5866387251185,585.5763300812746  L 769.901643332538,421.3750840996661  L 770.3205675248797,420.3637116329086 Z M 1157.4878260300932,588.1571396884699 L 1154.677604441737,594.58184005789  L 964.2746977873537,509.7023239352303  L 965.9132517625804,505.9562782947113 Z M 1153.52833273119,597.1405784389436 L 1150.5925122485878,603.5088653598056  L 782.3552028668596,430.60787676174925  L 782.9023876427636,429.4209412279404 Z M 1149.3932245886408,606.0445460723638 L 1146.3329370264742,612.3539644488337  L 945.9698547788471,513.4293507926191  L 947.6624787190042,509.93965501222664 Z M 1145.0840957653495,614.8656099397131 L 1141.9005209227291,621.1137273709016  L 870.807124817137,480.58153850610614  L 872.0464664922714,478.14919351457706 Z M 1140.602607512506,623.6003693529537 L 1137.2969727181357,629.7847770706529  L 813.5164248972792,453.7902432298207  L 814.3856662924543,452.1640069613679 Z M 1135.9504875291407,632.2454568960584 L 1132.5240671681595,638.3637706933674  L 784.2599041309576,440.1056232731626  L 784.9401027993002,438.89104115567835 Z M 1131.129529296064,640.7975397232125 L 1127.5836443187459,646.847400873695  L 813.6451078144055,459.87482949914244  L 814.5996698791455,458.2461901078098 Z M 1126.1415913844464,649.2533208436896 L 1122.477608796949,655.2323970107077  L 967.5837660627063,558.8127732197938  L 969.9107444574565,555.0154896004085 Z M 1120.9885967393022,657.609540392905 L 1117.20792907666,663.5155265287794  L 954.9458077298443,558.033391369981  L 957.2630985990206,554.4134255418871 Z M 1115.672531938159,665.8629768891542 L 1111.7766367197246,671.6935961238039  L 915.640942870247,538.6410543677099  L 917.6901313294738,535.5742271108435 Z M 1110.1954464251933,674.0104484755565 L 1106.185825592735,679.7634529942758  L 797.2079008318237,461.18278002895204  L 798.182422828863,459.78453573433615 Z M 1104.5594517211318,682.0488141467213 L 1100.4376510598072,687.7219860567548  L 971.660523252524,592.7731038608814  L 974.4633776145604,588.9153057912605 Z M 1098.7667206092187,689.9749749596651 L 1094.5343291516447,695.5661271452475  L 1012.6200745962233,632.6502446255432  L 1015.9781579151411,628.2140871774095 Z M 1092.8194862975674,697.7858752285132 L 1088.4781357112183,703.2928521940446  L 1009.0065340743489,639.7338180924232  L 1012.4643164072902,635.3476421131775 Z M 1086.720041558216,705.4785037025246 L 1082.271405516384,710.8991824035546  L 877.3939420783877,540.3422996746501  L 879.4707511902803,537.8117004498357 Z M 1080.4707378432197,713.0498947269866 L 1075.9165313797826,718.3821853886889  L 951.0694112558054,610.2294065820977  L 954.1191067645768,606.6586719188772 Z M 1074.0739843781214,720.4971293865312 L 1069.4159632263643,725.7389763093507  L 957.794047569153,625.1396228076503  L 961.0521901599177,621.4731120390024 Z M 1067.5322472331497,727.8173366304329 L 1062.772207148896,732.9667189825977  L 741.0153165363189,431.3260072276243  L 741.5766384433527,430.7187726096796 Z M 1060.8480483725016,735.0076943794523 L 1055.9878244418153,740.0626269760428  L 844.9233579769301,534.2603284190866  L 846.9180638626112,532.1857112932216 Z M 1054.0239646820778,742.0654306138026 L 1049.0654306138026,747.0239646820777  L 952.9169859042826,649.517495806321  L 956.517495806321,645.9169859042826 Z M 1047.0626269760428,748.9878244418153 L 1042.0076943794525,753.8480483725017  L 948.8590381309671,655.5978967610595  L 952.5452217533568,652.0536995809573 Z M 1039.9667189825977,755.772207148896 L 1034.817336630433,760.5322472331496  L 877.3184248623576,587.7355397219433  L 880.0599082481056,585.2013385471189 Z M 1032.7389763093506,762.4159632263643 L 1027.4971293865312,767.0739843781214  L 912.2255955671392,635.5079671276894  L 915.6336306568636,632.4795117440042 Z M 1025.3821853886889,768.9165313797827 L 1020.0498947269866,773.4707378432197  L 800.9882849731291,513.3102568509541  L 802.6934973617016,511.8538678852613 Z M 1017.8991824035546,775.271405516384 L 1012.4785037025247,779.720041558216  L 858.4582942847265,589.3390091480476  L 861.2241204000009,587.069154316122 Z M 1010.2928521940446,781.4781357112183 L 1004.7858752285133,785.8194862975674  L 805.3435278447967,529.146244475835  L 807.2704038289006,527.6272179326388 Z M 1002.5661271452476,787.5343291516447 L 996.9749749596652,791.7667206092187  L 786.8953212741178,510.16143278994326  L 788.5577589744535,508.903000379573 Z M 994.7219860567548,793.4376510598071 L 989.0488141467214,797.5594517211317  L 795.1470970968845,526.7025646979564  L 797.0407044768256,525.3267784050843 Z M 986.7634529942758,799.185825592735 L 981.0104484755565,803.1954464251933  L 921.09774669575,715.934559098626  L 925.6328525611704,712.7737663517707 Z M 978.6935961238039,804.7766367197245 L 972.8629768891541,808.672531938159  L 843.0999989753002,611.4890765651504  L 846.1779793368177,609.4324358396493 Z M 970.5155265287794,810.2079290766601 L 964.609540392905,813.9885967393021  L 800.0292199306942,552.8741643726958  L 802.28939095637,551.4273347811212 Z M 962.2323970107078,815.477608796949 L 956.2533208436897,819.1415913844464  L 785.8797548107208,536.6902004288644  L 787.9143452889211,535.4434017802812 Z M 953.847400873695,820.5836443187459 L 947.7975397232126,824.1295292960641  L 841.1890803544711,639.2787422285618  L 844.6569850238675,637.2461681307243 Z M 945.3637706933674,825.5240671681595 L 939.2454568960584,828.9504875291407  L 737.1416204906558,462.05664080525685  L 738.1343053676198,461.50071056252165 Z M 936.784777070653,830.2969727181359 L 930.6003693529537,833.6026075125061  L 872.6632973212597,723.3573004040028  L 877.3072669200925,720.8750469384097 Z M 928.1137273709016,834.9005209227291 L 921.8656099397131,838.0840957653495  L 823.6578012278784,641.9523658098141  L 827.1649263214922,640.1653963200573 Z M 919.3539644488338,839.3329370264742 L 913.0445460723638,842.3932245886407  L 836.8178406232054,682.3881512170725  L 840.8907634227224,680.4126418687765 Z M 910.5088653598056,843.5925122485877 L 904.1405784389437,846.52833273119  L 817.6777980211994,655.4633492851298  L 821.3749961256556,653.7589176132867 Z M 901.5818400578898,847.6776044417371 L 895.15713968847,850.4878260300931  L 821.9069650161805,679.7734224346791  L 825.9446839908574,678.0072879260006 Z M 892.5763300812746,851.5866387251185 L 886.0976931075887,854.270178025311  L 726.0237793311762,460.0204171311671  L 726.9890005942224,459.6206093933225 Z M 883.495807225483,855.318108091604 L 876.965731285411,857.8739305481492  L 813.6452910547537,692.687765564529  L 817.8649398516226,691.0362268607305 Z M 874.3437722049318,858.8705739887208 L 867.7647747670544,861.2976942834094  L 830.3013759640033,757.5132071819426  L 835.4285315514283,755.6216996235692 Z M 865.1237533033386,862.2426668732414 L 858.498370696405,864.5401493049976  L 794.8020688822243,676.6082959136724  L 798.7980642353524,675.2226055066635 Z M 855.8393050135008,865.4330867391682 L 849.1700914486257,867.6000455847798  L 783.8658465983058,661.7127184403134  L 787.6540143727992,660.4818681177458 Z M 846.4940066669717,868.4406036189102 L 839.7835332529389,870.4762034744922  L 793.6935346444343,714.6114352328502  L 798.2226143294546,713.2375539306059 Z M 837.0914610541599,871.2640580574598 L 830.3423148062102,873.1675141605187  L 802.109773935074,770.3068828484224  L 807.4191271163124,768.8094903864953 Z M 827.6352930353847,873.9023615593838 L 820.8500758778724,875.6729400913579  L 725.6768430430698,500.1917672355938  L 727.2054818244435,499.792874326699 Z M 818.1291481434237,876.3544970084602 L 811.3104759067256,877.9915153776207  L 713.5003740378277,457.61829439155633  L 714.4331383675545,457.39435748876133 Z M 808.5766911780906,878.6195190597944 L 801.7271925901534,880.1223461643981  L 721.9967134417209,504.15575487737124  L 723.5813071314744,503.8080841221806 Z M 798.9816047933848,880.6965545042692 L 792.1039204663001,882.0646109758595  L 711.0283183822812,458.98596770849383  L 711.9805067789184,458.7965656603273 Z M 789.3475880777585,882.5848026051824 L 782.444369489757,883.8175610319475  L 704.1455008717402,426.8651591483319  L 704.6478876632659,426.7754442504399 Z M 779.6783551280472,884.2835354069468 L 772.7522636013039,885.3805205370466  L 715.8886397248385,509.30805640929236  L 717.5460926239773,509.045541659498 Z M 769.9776336176155,885.7920980157305 L 763.0313392922576,886.7528869405153  L 745.9996268313718,756.915170019465  L 751.1266861708639,756.206011783524 Z M 760.2491633592674,887.109908851931 L 753.2853441639863,887.9341311689806  L 700.4083838201233,412.64783704021903  L 700.711747211087,412.611931616773 Z M 750.4966948634772,888.2364598743851 L 743.5180354831351,888.9237978303066  L 730.7704722043636,749.4776408624871  L 735.7947216215415,748.9827954865727 Z M 740.7239878924969,889.1713167762289 L 733.7331787331298,889.7215053891563  L 713.2821033410955,604.2895492087191  L 716.2718812393679,604.0542485850985 Z M 730.9348100108958,889.9141191523308 L 723.9345461625105,890.3269463140805  L 706.1054154109808,547.056416041032  L 708.2932326228992,546.9273937085051 Z M 721.1329351330927,890.4645806382352 L 714.1259153306592,890.7398871960777  L 701.5653032291101,501.48825427898754  L 703.114495930163,501.4273863319877 Z M 711.3221420684403,890.8224890205604 L 704.311067651477,890.9601688385771  L 700.5046199182434,589.414953911708  L 703.2870455873621,589.3603140894802 Z M 701.5062130644218,890.9877063188123 L 694.4937869355783,890.9877063188123  L 695.4462368876842,755.1678750115925  L 700.5537631123158,755.1678750115925 Z M 691.6889323485233,890.9601688385771 L 684.6778579315599,890.8224890205604  L 695.7829420885373,474.17997195324756  L 696.9497182664318,474.2028844945051 Z M 681.8740846693408,890.7398871960777 L 674.8670648669074,890.4645806382352  L 680.6850223078854,764.848714916456  L 685.9297692831094,765.0547815863406 Z M 672.0654538374895,890.3269463140805 L 665.0651899891043,889.9141191523308  L 696.5206147014188,413.4105198385645  L 696.8350566982017,413.42906345347365 Z M 662.2668212668702,889.7215053891562 L 655.2760121075031,889.1713167762289  L 678.9858358181758,612.709434795582  L 682.0970714419307,612.9542943495051 Z M 652.4819645168649,888.9237978303066 L 645.5033051365228,888.2364598743851  L 662.2379538251225,729.7297673521109  L 666.991989096249,730.1979989575736 Z M 642.7146558360135,887.9341311689806 L 635.7508366407327,887.109908851931  L 663.6966038030168,664.389292999444  L 667.5341276508665,664.8434938781444 Z M 632.9686607077423,886.7528869405153 L 626.0223663823846,885.7920980157305  L 693.0753592116043,424.85320168497185  L 693.5506180197028,424.9189379434486 Z M 623.2477363986961,885.3805205370466 L 616.3216448719529,884.2835354069468  L 673.4487551150893,539.2733688317367  L 675.5306306487212,539.6031055229562 Z M 613.5556305102428,883.8175610319475 L 606.6524119222416,882.5848026051824  L 660.0524751295611,595.2136734569348  L 662.9202033812503,595.7257847457308 Z M 603.8960795336999,882.0646109758595 L 597.0183952066152,880.6965545042692  L 660.3536404906171,573.5608988794913  L 662.9176696254208,574.0709159847255 Z M 594.2728074098467,880.1223461643981 L 587.4233088219095,878.6195190597944  L 680.5985467415015,467.73668092658374  L 681.6764522951247,467.9731808194431 Z M 584.6895240932744,877.9915153776208 L 577.8708518565763,876.3544970084602  L 655.7712937547092,561.615481719148  L 658.1682449636087,562.1909387909562 Z M 575.1499241221276,875.6729400913579 L 568.3647069646154,873.902361559384  L 648.033816823892,577.1282316634653  L 650.649087676787,577.810677386268 Z M 565.6576851937899,873.1675141605187 L 558.9085389458402,871.2640580574598  L 617.1327420807108,670.2237363670682  L 621.0566705967499,671.3303986629238 Z M 556.2164667470611,870.4762034744923 L 549.5059933330283,868.4406036189102  L 668.5345392701606,485.7378798143295  L 669.8660892451253,486.1418010832925 Z M 546.8299085513743,867.6000455847798 L 540.1606949864994,865.4330867391682  L 632.688104661881,587.3143724143927  L 635.4477403451439,588.211032402312 Z M 537.5016293035951,864.5401493049976 L 530.8762466966614,862.2426668732414  L 671.3391004614246,466.17634777501667  L 672.3960337614293,466.54286029698903 Z M 528.2352252329456,861.2976942834096 L 521.6562277950683,858.8705739887209  L 685.3049127194237,424.68226560276577  L 685.7785384429081,424.8569953570194 Z M 519.034268714589,857.8739305481492 L 512.504192774517,855.318108091604  L 571.7250765102998,707.08117968337  L 576.1703782777525,708.8210372574076 Z M 509.9023068924114,854.270178025311 L 503.4236699187255,851.5866387251186  L 652.5513873215182,498.58258077720996  L 654.0646498153608,499.2093946255901 Z M 500.84286031153,850.4878260300932 L 494.41815994211004,847.6776044417371  L 596.8177393775852,617.9734490065736  L 600.0108812954239,619.3701579324725 Z M 491.85942156105637,846.52833273119 L 485.49113464019445,843.5925122485878  L 682.6746563144038,423.6392773684674  L 683.1339133227431,423.85099774925675 Z M 482.9554539276361,842.3932245886406 L 476.6460355511662,839.3329370264742  L 522.2957024691336,746.8735618597673  L 527.3039340877827,749.302728546218 Z M 474.1343900602869,838.0840957653495 L 467.88627262909847,834.9005209227294  L 557.0291258720213,662.9396412169684  L 560.8568096264511,664.8899435024667 Z M 465.39963064704625,833.6026075125061 L 459.2152229293472,830.296972718136  L 640.4924849972898,496.79768760450946  L 641.9819012154068,497.59379715915867 Z M 456.7545431039415,828.9504875291407 L 450.63622930663263,825.5240671681595  L 523.3104587232555,697.8630857079121  L 527.6312427557885,700.2828410318357 Z M 448.2024602767874,824.129529296064 L 442.1525991263052,820.5836443187461  L 660.3478391135342,454.2203119314423  L 661.2381758713079,454.74214733487014 Z M 439.7466791563102,819.1415913844464 L 433.76760298929213,815.477608796949  L 504.9853754743041,701.0694207386998  L 509.35292901597205,703.7458609912773 Z M 431.39045960709507,813.9885967393022 L 425.48447347122067,810.2079290766602  L 504.7744675226546,688.2369183742953  L 508.96207228207606,690.9175785610344 Z M 423.1370231108459,808.672531938159 L 417.30640387619616,804.7766367197246  L 494.2676317616995,691.3263889333865  L 498.49959815272126,694.1540984722598 Z M 414.98955152444347,803.1954464251933 L 409.2365470057244,799.1858255927351  L 497.63619166293574,674.227207864807  L 501.6280191701852,677.0093566847092 Z M 406.9511858532786,797.5594517211316 L 401.27801394324524,793.4376510598071  L 545.7190683227088,597.5353540525512  L 548.6306014905277,599.6507067206697 Z M 399.02502504033487,791.7667206092187 L 393.43387285475256,787.5343291516448  L 588.2856248935761,533.8442372725511  L 590.2997351753592,535.368878861312 Z M 391.21412477148675,785.8194862975676 L 385.70714780595546,781.4781357112183  L 448.44254089701803,703.0363809121448  L 452.84324097452964,706.5056131209285 Z M 383.52149629747555,779.7200415582163 L 378.1008175964454,775.271405516384  L 611.084318690684,495.4054278826249  L 612.5571013934061,496.6141094102484 Z M 375.95010527301355,773.4707378432197 L 370.6178146113112,768.9165313797826  L 536.6319887602341,577.2765959943192  L 539.2602965235587,579.5213828904284 Z M 368.50287061346876,767.0739843781214 L 363.2610236906492,762.4159632263642  L 558.7014245001365,545.5613694759243  L 560.8827713435417,547.4997625433882 Z M 361.1826633695671,760.5322472331496 L 356.0332810174024,755.7722071488961  L 537.400124004863,562.310153832737  L 539.8184592442383,564.5456399336576 Z M 353.99230562054777,753.8480483725018 L 348.93737302395726,748.9878244418153  L 567.0713536564182,525.2763665869838  L 568.9673901584155,527.0993705152019 Z M 346.93456938619744,747.0239646820778 L 341.9760353179223,742.0654306138026  L 459.5881550626171,626.0913570695002  L 462.9086429304998,629.411844937383 Z M 340.0121755581847,740.0626269760428 L 335.15195162749825,735.0076943794522  L 655.3587415351581,431.4271735116772  L 655.9299064229258,432.02122021618726 Z M 333.2277928511042,732.966718982598 L 328.4677527668504,727.8173366304329  L 444.09857485308703,622.4233803002805  L 447.36914452649887,625.9614626398609 Z M 326.5840367736359,725.7389763093508 L 321.92601562187855,720.4971293865311  L 572.8527581325939,500.6477253382464  L 574.4028214816086,502.39207010000064 Z M 320.08346862021745,718.3821853886889 L 315.5292621567803,713.0498947269865  L 549.3426728714174,516.1731748737858  L 551.1127851782151,518.2457101001703 Z M 313.72859448361606,710.8991824035547 L 309.279958441784,705.4785037025247  L 494.29999128710176,555.795397961568  L 496.6311991066142,558.6359829085221 Z M 307.52186428878184,703.2928521940448 L 303.18051370243245,697.7858752285131  L 609.532432968995,459.74179447285104  L 610.5052034054407,460.9757478888919 Z M 301.4656708483553,695.5661271452475 L 297.2332793907813,689.9749749596652  L 552.7321001366602,499.3709412250188  L 554.2662360487107,501.39759387367485 Z M 295.562348940193,687.7219860567548 L 291.4405482788683,682.0488141467213  L 546.8502093439188,499.2054964968634  L 548.382603448761,501.31465603780475 Z M 289.814174407265,679.7634529942758 L 285.8045535748068,674.0104484755566  L 389.11310850642417,603.0795327749513  L 392.1177979704808,607.3906616288655 Z M 284.22336328027563,671.6935961238041 L 280.327468061841,665.862976889154  L 540.6176924639736,494.57053971995805  L 542.0856965401588,496.76756307999324 Z M 278.79207092333985,663.5155265287794 L 275.0114032606979,657.609540392905  L 652.8162310556366,419.47931117845343  L 653.2200831108482,420.11019039129525 Z M 273.52239120305103,655.2323970107079 L 269.85840861555357,649.2533208436896  L 497.7977899609548,511.7611842046037  L 499.511095620397,514.5570449355318 Z M 268.4163556812543,646.8474008736953 L 264.87047070393584,640.7975397232125  L 437.6989391915669,541.1226773500427  L 439.82993594581905,544.7585072085467 Z M 263.4759328318406,638.3637706933674 L 260.04951247085927,632.2454568960584  L 359.4360193409123,577.4983018136614  L 362.08486333094896,582.2281530939401 Z M 258.70302728186425,629.784777070653 L 255.39739248749396,623.6003693529537  L 406.61404374092825,544.1316804278174  L 408.79029742595344,548.2031647031712 Z M 254.09947907727087,621.1137273709018 L 250.91590423465044,614.8656099397131  L 420.3333894704971,530.0342571226339  L 422.3105844642134,533.9147207887337 Z M 249.6670629735259,612.3539644488338 L 246.60677541135925,606.0445460723638  L 577.1628020590691,448.5670589729046  L 577.9820358307827,450.25607953351323 Z M 245.4074877514123,603.5088653598057 L 242.47166726881005,597.1405784389437  L 430.90156274,511.8702563609923  L 432.62297720894736,515.6042930001342 Z M 241.32239555826294,594.5818400578902 L 238.51217396990688,588.15713968847  L 586.7931975050518,438.7166398144543  L 587.4733368677057,440.2715675940306 Z M 237.41336127488148,585.5763300812746 L 234.72982197468895,579.0976931075886  L 352.18701137122287,531.407538609489  L 354.19016803772354,536.2435866013132 Z M 233.68189190839604,576.4958072254831 L 231.12606945185075,569.9657312854109  L 620.7707187082126,420.60412629337424  L 621.1934973611064,421.68431740843704 Z M 230.12942601127918,567.343772204932 L 227.70230571659056,560.7647747670545  L 482.64832200659475,468.7361436269907  L 483.75971258857373,471.7486996207427 Z M 226.75733312675868,558.1237533033388 L 224.45985069500244,551.4983706964049  L 331.5930619039401,515.1873929012918  L 333.37076439523844,520.3138561130901 Z M 223.56691326083188,548.839305013501 L 221.39995441522024,542.1700914486257  L 583.4630765300548,427.3293234140404  L 583.9838419008549,428.9320744224831 Z M 220.5593963810898,539.4940066669718 L 218.52379652550763,532.7835332529388  L 643.7683178287415,407.03658212184973  L 643.9985565842748,407.79557758141874 Z M 217.73594194254025,530.09146105416 L 215.83248583948125,523.34231480621  L 587.9270671474412,421.2121281575319  L 588.3616028423326,422.75287551181214 Z M 215.0976384406162,520.635293035385 L 213.32705990864213,513.8500758778724  L 561.5758842465087,425.57942786888196  L 562.0742607610943,427.48930806713395 Z M 212.6455029915399,511.12914814342395 L 211.00848462237929,504.31047590672557  L 638.4767236336456,404.84954472434555  L 638.6768106859402,405.6829672772659 Z M 210.38048094020564,501.57669117809075 L 208.8776538356019,494.7271925901532  L 565.693801283466,419.05790956549004  L 566.100311726298,420.91067938553766 Z M 208.30344549573084,491.98160479338486 L 206.93538902414048,485.10392046630017  L 570.7215286223175,415.3906868462702  L 571.0761136047627,417.1733059318321 Z M 206.4151973948176,482.34758807775864 L 205.18243896805245,475.4443694897571  L 355.9661230144042,449.60756062690996  L 356.8217036134605,454.39865332334114 Z M 204.71646459305316,472.6783551280473 L 203.61947946295334,465.7522636013037  L 459.62772770602135,427.04281761426313  L 460.1566539627649,430.3823265689292 Z M 203.20790198426948,462.97763361761565 L 202.24711305948478,456.0313392922576  L 436.4660495974228,425.30721940932483  L 436.9729128545441,428.9717301835967 Z M 201.89009114806902,453.2491633592674 L 201.06586883101943,446.2853441639864  L 646.416025958434,396.73886472946725  L 646.5015839025164,397.46174014910184 Z M 200.7635401256149,443.49669486347744 L 200.07620216969337,436.5180354831351  L 331.6329086790015,424.49169157061567  L 332.13864471484226,429.62651571366126 Z M 199.82868322377118,433.72398789249706 L 199.27849461084372,426.73317873312965  L 387.62376042572515,413.2383224372289  L 387.9661669008655,417.5890092133541 Z M 199.08588084766916,423.9348100108959 L 198.6730536859195,416.93454616251046  L 452.9303284335093,403.728675584583  L 453.13294400971756,407.16440516991065 Z M 198.5354193617648,414.1329351330927 L 198.26011280392237,407.12591533065915  L 536.1497217928246,396.2226847395683  L 536.2388850637996,398.49204152593603 Z M 198.17751097943955,404.3221420684404 L 198.0398311614229,397.31106765147683  L 564.5170348463893,392.6849742757731  L 564.5537935953779,394.5568413972339 Z M 198.0122936811877,394.5062130644219 L 198.0122936811877,387.4937869355782  L 362.0325637752578,388.6439952438343  L 362.0325637752578,393.35600475616576 Z M 198.0398311614229,384.6889323485233 L 198.17751097943955,377.6778579315597  L 299.927865516836,380.3898861184419  L 299.81821358992784,385.9736952096454 Z M 198.26011280392237,374.8740846693412 L 198.5354193617648,367.8670648669074  L 520.0579423180716,382.7585305597745  L 519.9598600569967,385.25489080271666 Z M 198.6730536859195,365.06545383748966 L 199.08588084766916,358.0651899891042  L 361.7140955815652,368.80076380644226  L 361.4358353557505,373.5191912252165 Z M 199.27849461084372,355.26682126687047 L 199.82868322377112,348.27601210750305  L 300.2372060398069,356.88721144522555  L 299.79791025437453,362.4689936346677 Z M 200.07620216969337,345.481964516865 L 200.7635401256149,338.5033051365229  L 398.3859638612527,359.3676723224115  L 397.9718025601747,363.5727225802105 Z M 201.06586883101937,335.71465583601395 L 201.89009114806902,328.7508366407327  L 320.55299437285856,343.64001001890335  L 319.9259150906459,348.9381761230039 Z M 202.24711305948478,325.9686607077425 L 203.20790198426948,319.0223663823845  L 560.5916623745183,371.01114605250206  L 560.3248424121682,372.94019617220385 Z M 203.61947946295334,316.2477363986964 L 204.71646459305316,309.3216448719528  L 409.10374390456303,343.16428421625756  L 408.46128399189485,347.22061646298425 Z M 205.1824389680524,306.555630510243 L 206.41519739481754,299.6524119222417  L 665.2019990093362,384.9053887174878  L 665.1197507138478,385.3659639201551 Z M 206.93538902414042,296.8960795337002 L 208.30344549573084,290.01839520661525  L 505.4583171964722,351.2954769841053  L 504.92041695439895,353.99968411390415 Z M 208.8776538356019,287.2728074098469 L 210.3804809402056,280.42330882190936  L 508.2603612218585,347.97304840899886  L 507.6755899794699,350.63828500656683 Z M 211.00848462237929,277.68952409327454 L 212.64550299153996,270.87085185657594  L 638.970477735589,376.3897176833753  L 638.771381172427,377.21901455213987 Z M 213.327059908642,268.1499241221279 L 215.0976384406161,261.3647069646154  L 564.5380718700344,355.1721028111644  L 564.0487290057342,357.0473642236327 Z M 215.83248583948125,258.65768519379014 L 217.7359419425402,251.90853894584012  L 635.1561121322814,372.799495433408  L 634.9070396066678,373.6826399929334 Z M 218.52379652550763,249.21646674706128 L 220.5593963810898,242.50599333302804  L 391.55944390187403,295.69058216802364  L 390.2529141534411,299.99763353544233 Z M 221.3999544152203,239.8299085513742 L 223.56691326083177,233.16069498649938  L 619.5397832083381,364.897043786044  L 619.1814185294035,365.9999768587065 Z M 224.45985069500233,230.5016293035954 L 226.7573331267585,223.87624669666152  L 532.137904385044,332.17787310336047  L 531.3292652749692,334.5097923472784 Z M 227.70230571659044,221.23522523294585 L 230.12942601127924,214.656227795068  L 353.3550092171349,261.100833168342  L 351.5671326160044,265.9470847545607 Z M 231.12606945185075,212.034268714589 L 233.68189190839604,205.50419277451687  L 543.7796069830293,329.38871283548906  L 542.9307063331063,331.5576372439033 Z M 234.72982197468895,202.90230689241133 L 237.4133612748813,196.42366991872566  L 461.86242835654843,291.2429114924713  L 460.4866080428911,294.5644355530914 Z M 238.51217396990677,193.84286031153036 L 241.32239555826288,187.41815994210995  L 615.8007427858255,354.3564775844216  L 615.294919585994,355.51288550338575 Z M 242.47166726881,184.85942156105637 L 245.40748775141236,178.4911346401943  L 434.95710505414695,267.49166605036726  L 433.2508313136727,271.1928599105726 Z M 246.6067754113593,175.95545392763614 L 249.66706297352596,169.64603555116605  L 617.8780207676963,351.44163549485035  L 617.3311140467066,352.56919728292746 Z M 250.91590423465027,167.13439006028727 L 254.0994790772707,160.88627262909853  L 521.2208763344315,299.35941579098386  L 519.953048196649,301.847668613371 Z M 255.3973924874938,158.3996306470465 L 258.7030272818642,152.21522292934702  L 656.9211482079386,368.6711312013081  L 656.612036854504,369.24943786817437 Z M 260.0495124708593,149.75454310394156 L 263.4759328318406,143.63622930663246  L 577.8902058892406,322.6244741929485  L 576.9430854068783,324.3156795047487 Z M 264.87047070393595,141.20246027678746 L 268.4163556812542,135.15259912630484  L 611.9662347722843,339.7608164044614  L 611.2560917309986,340.97243686712204 Z M 269.8584086155534,132.74667915631062 L 273.522391203051,126.76760298929219  L 494.98672939368544,264.6265894699991  L 493.2343705575135,267.4861791932613 Z M 275.01140326069776,124.39045960709512 L 278.7920709233399,118.48447347122061  L 409.39699591350785,203.3871373577109  L 406.79420152625846,207.4531037259064 Z M 280.3274680618411,116.13702311084592 L 284.2233632802756,110.30640387619604  L 546.7440761741942,288.3925412264107  L 545.3199328608732,290.52392231598833 Z M 285.80455357480673,107.98955152444353 L 289.81417440726494,102.23654700572428  L 382.65100577660615,167.91223271168914  L 379.55332374686697,172.35678731156122 Z M 291.44054827886816,99.95118585327879 L 295.56234894019286,94.2780139432453  L 406.57754296819604,176.1308146633491  L 403.5927693692167,180.2390030816839 Z M 297.23327939078126,92.02502504033487 L 301.46567084835533,86.4338728547524  L 519.954480571268,254.2485756681228  L 518.0541196690942,256.7590256390418 Z M 303.18051370243245,84.21412477148681 L 307.5218642887818,78.70714780595529  L 662.1597849516679,362.33605711289  L 661.7613120939454,362.84151752324397 Z M 309.2799584417839,76.52149629747538 L 313.72859448361595,71.10081759644538  L 421.7484748158536,161.02546696029017  L 418.55036412142454,164.92237611667264 Z M 315.52926215678025,68.95010527301355 L 320.0834686202174,63.61781461131119  L 672.2220689325679,368.6690493616592  L 671.9114235637276,369.0327683569808 Z M 321.9260156218786,61.50287061346876 L 326.58403677363583,56.26102369064921  L 555.5426164601628,262.61015288734154  L 553.756022529228,264.6206744358893 Z M 328.4677527668503,54.18266336956708 L 333.22779285110414,49.0332810174022  L 596.621458234479,295.9596251486222  L 595.2985341930371,297.39075631383866 Z M 335.15195162749814,46.99230562054777 L 340.0121755581846,41.937373023957264  L 538.6718486510202,235.64414914717105  L 536.5087290107762,237.89392696311845 Z M 341.9760353179222,39.93456938619744 L 346.9345693861973,34.97603531792231  L 557.610228441518,248.62732894642104  L 555.627328946421,250.610228441518 Z M 348.93737302395715,33.01217555818471 L 353.99230562054765,28.15195162749825  L 623.0628183080096,311.95871525047374  L 621.9616731632337,313.01744588268997 Z M 356.03328101740226,26.227792851104084 L 361.18266336956697,21.467752766850424  L 680.9784757052789,372.3251830001152  L 680.7182446325942,372.5657381293391 Z M 363.2610236906491,19.584036773635944 L 368.50287061346864,14.926015621878662  L 585.378423793141,262.45853146000434  L 583.58676914722,264.0506354188234 Z M 370.6178146113111,13.083468620217445 L 375.95010527301343,8.529262156780362  L 668.9753682005954,356.5299612833073  L 668.4947974081891,356.94040751509937 Z M 378.10081759644527,6.728594483616064 L 383.5214962974755,2.27995844178389  L 497.2529301378931,142.8609112522883  L 493.7926447667661,145.7006940665869 Z M 385.70714780595534,0.5218642887817282 L 391.21412477148647,-3.81948629756738  L 647.0652906197435,325.4493426327091  L 646.1509842779207,326.17012363434026 Z M 393.4338728547521,-5.534329151644442 L 399.0250250403349,-9.766720609218794  L 499.72187948228907,125.21430292230008  L 496.0138663048135,128.02119545106865 Z M 401.2780139432453,-11.437651059807138 L 406.95118585327884,-15.559451721131836  L 588.6443225600729,238.2435478120275  L 586.5127435008222,239.7922306503787 Z M 409.23654700572433,-17.185825592735114 L 414.98955152444375,-21.19544642519344  L 524.650987630624,138.52284261641722  L 521.1271684329638,140.978807811435 Z M 417.3064038761959,-22.776636719724365 L 423.1370231108458,-26.672531938158784  L 552.8132426268576,170.3790882924677  L 549.7334218749427,172.43695872751772 Z M 425.48447347122044,-28.207929076660037 L 431.390459607095,-31.988596739302125  L 521.2006045141211,110.49942942507312  L 517.2841100892335,113.00654059710047 Z M 433.7676029892921,-33.47760879694897 L 439.7466791563103,-37.14159138444643  L 649.7248055873138,310.96765620392193  L 648.6071391680472,311.652563066526 Z M 442.1525991263049,-38.583644318745826 L 448.2024602767875,-42.129529296064106  L 620.4584218830687,256.5489270716005  L 618.580437890446,257.6496325359819 Z M 450.6362293066321,-43.52406716815915 L 456.7545431039416,-46.95048752914073  L 622.8423828186461,254.56089142733927  L 620.9362831470088,255.6283585336898 Z M 459.2152229293471,-48.29697271813586 L 465.39963064704637,-51.602607512506154  L 544.1898781715249,98.32307445394491  L 540.10035541134,100.50896990998785 Z M 467.88627262909836,-52.90052092272924 L 474.13439006028716,-56.08409576534967  L 672.6887457232916,340.45065821393246  L 671.9823054214777,340.8106075262551 Z M 476.6460355511663,-57.33293702647421 L 482.955453927636,-60.393224588640635  L 640.5972741794664,270.5077485964745  L 638.913075162256,271.3246437517877 Z M 485.49113464019416,-61.59251224858758 L 491.85942156105625,-64.52833273118995  L 587.3446675142736,146.47444614371153  L 583.926199826209,148.0503813335751 Z M 494.4181599421098,-65.677604441737 L 500.84286031153,-68.48782603009312  L 679.1396348822602,347.04466477969066  L 678.5250378408809,347.31349504017174 Z M 503.4236699187253,-69.58663872511852 L 509.9023068924114,-72.27017802531105  L 588.8203703584285,122.09895381939805  L 585.0599032645302,123.65659029054837 Z M 512.5041927745169,-73.31810809160396 L 519.0342687145891,-75.87393054814925  L 616.2115468280366,177.63570767662057  L 613.2272614768807,178.80373444801202 Z M 521.656227795068,-76.87057398872076 L 528.2352252329457,-79.2976942834095  L 571.239247406411,39.835927522674865  L 566.3268109620367,41.648221007068685 Z M 530.8762466966614,-80.24266687324143 L 537.5016293035952,-82.54014930499767  L 633.9528585834696,202.0330168627594  L 631.3089886493157,202.9498310433035 Z M 540.1606949864993,-83.43308673916817 L 546.8299085513745,-85.60004558477982  L 630.2743642086136,177.47865595555  L 627.2864932310849,178.44947408595175 Z M 549.5059933330278,-86.44060361891013 L 556.216466747061,-88.47620347449225  L 630.6834175754167,163.3522708787633  L 627.4973907758316,164.31874154230155 Z M 558.9085389458398,-89.26405805745969 L 565.6576851937898,-91.16751416051869  L 669.9759090957392,288.8988219474476  L 668.5467464862166,289.30188748957977 Z M 568.364706964615,-91.90236155938379 L 575.1499241221276,-93.67294009135787  L 668.9925243813334,276.5585689120456  L 667.3903925156635,276.9766395825776 Z M 577.870851856576,-94.3544970084601 L 584.6895240932744,-95.99151537762071  L 682.394684502289,323.9306828749707  L 681.4556051216962,324.1561358873412 Z M 587.4233088219092,-96.61951905979436 L 594.2728074098468,-98.1223461643981  L 615.2087305847695,0.6003475355747696  L 609.7417101362954,1.7998494269772891 Z M 597.0183952066151,-98.69655450426916 L 603.8960795337,-100.06461097585958  L 626.4752337936839,17.760699042054057  L 621.2477707815369,18.800506085189795 Z M 606.6524119222415,-100.58480260518246 L 613.5556305102431,-101.8175610319476  L 644.5445179886841,79.03366727962424  L 640.1746010921424,79.81403542381696 Z M 616.3216448719529,-102.28353540694684 L 623.247736398696,-103.3805205370466  L 682.0167271709978,285.29325132904825  L 680.5358140163004,285.52780493022425 Z M 626.0223663823841,-103.79209801573046 L 632.9686607077422,-104.75288694051522  L 658.8166221473926,92.29367006864396  L 654.6312666220709,92.87257488417072 Z M 635.7508366407324,-105.10990885193092 L 642.7146558360135,-105.93413116898057  L 688.1927316698506,302.847046618214  L 686.9573944483224,302.9932584135684 Z M 645.5033051365225,-106.23645987438505 L 652.4819645168649,-106.92379783030663  L 673.0683117562327,118.27116263052778  L 669.2458761395944,118.64763967865292 Z M 655.2760121075029,-107.17131677622882 L 662.2668212668704,-107.72150538915628  L 676.7129982794007,93.90117141254893  L 672.5484270915073,94.2289302732288 Z M 665.065189989104,-107.91411915233084 L 672.0654538374895,-108.32694631408049  L 687.8773379765518,196.10482485155453  L 685.1450246918643,196.26595779779174 Z M 674.8670648669073,-108.46458063823519 L 681.8740846693411,-108.73988719607763  L 694.3742915701126,278.63979689804495  L 692.7988516496406,278.7016961011044 Z M 684.6778579315597,-108.82248902056045 L 691.6889323485229,-108.96016883857709  L 696.5138750635746,273.2697972574305  L 694.8629131190065,273.30221798591833 Z M 694.4937869355779,-108.98770631881229 L 701.5062130644216,-108.98770631881229  L 698.1416997569746,370.79354500883625  L 697.8583002430254,370.79354500883625 Z M 704.3110676514765,-108.96016883857709 L 711.32214206844,-108.82248902056045  L 705.6855318758344,102.65285192937301  L 701.640849298618,102.57342456517068 Z M 714.1259153306588,-108.73988719607763 L 721.1329351330926,-108.46458063823519  L 706.7097422355478,202.94743649620798  L 704.0715410748454,202.84378129029622 Z M 723.9345461625103,-108.32694631408049 L 730.9348100108957,-107.91411915233084  L 703.0434813983468,314.5986459771617  L 701.9714940241621,314.53542757358423 Z M 733.7331787331295,-107.72150538915628 L 740.7239878924969,-107.17131677622888  L 702.6653112071335,336.6014210780928  L 701.9019391080637,336.54134239095373 Z M 743.518035483135,-106.92379783030663 L 750.4966948634773,-106.2364598743851  L 713.2112780000195,246.92231963241304  L 711.1891634997087,246.72315873752856 Z M 753.2853441639862,-105.93413116898057 L 760.2491633592675,-105.10990885193098  L 714.6541831563836,258.27042032627105  L 712.791078271314,258.0499073315743 Z M 763.0313392922576,-104.75288694051522 L 769.9776336176153,-103.79209801573057  L 741.8455408828662,89.59488188621822  L 737.6141704345836,89.0096124356379 Z M 772.7522636013033,-103.38052053704672 L 779.678355128047,-102.2835354069469  L 741.3295278577114,129.31815472216522  L 737.6553074931775,128.7362153860995 Z M 782.4443694897567,-101.8175610319476 L 789.3475880777582,-100.58480260518246  L 714.4694561207782,302.3700262205526  L 713.224844653528,302.1477668128948 Z M 792.1039204662998,-100.06461097585958 L 798.9816047933851,-98.6965545042691  L 747.7142913903858,149.91730723328806  L 744.3283360629042,149.2437988432569 Z M 801.7271925901531,-98.1223461643981 L 808.5766911780906,-96.61951905979441  L 761.9729070461302,108.89318495296288  L 758.0102063014225,108.0237411520593 Z M 811.3104759067254,-95.99151537762071 L 818.1291481434238,-94.3544970084601  L 713.5330102343947,328.24240547896846  L 712.6513382399245,328.03073476062036 Z M 820.8500758778723,-93.67294009135793 L 827.6352930353848,-91.90236155938385  L 760.5910344026283,157.84313648117703  L 757.3149685212541,156.98825862181897 Z M 830.34231480621,-91.16751416051869 L 837.0914610541597,-89.26405805745986  L 793.1907638836024,62.31912911226732  L 788.5718147257219,61.016450722840375 Z M 839.7835332529385,-88.47620347449242 L 846.4940066669715,-86.4406036189103  L 782.078511955016,120.66925467092796  L 778.2789874366229,119.5166815089886 Z M 849.1700914486254,-85.60004558477988 L 855.839305013501,-83.43308673916806  L 796.8155712509803,93.9803414144107  L 792.6402985066433,92.62371306263117 Z M 858.498370696405,-82.54014930499756 L 865.1237533033388,-80.24266687324132  L 764.0969568432154,204.62490011538029  L 761.4766373519133,203.7162525165904 Z M 867.7647747670545,-79.29769428340944 L 874.3437722049318,-76.87057398872088  L 820.5489976615805,65.85628122418854  L 815.9769646855988,64.16956920936047 Z M 876.9657312854108,-75.8739305481493 L 883.495807225483,-73.31810809160402  L 820.5984592042773,84.12144848923805  L 816.2825813377409,82.43224645357554 Z M 886.0976931075884,-72.27017802531111 L 892.5763300812745,-69.58663872511858  L 743.7553284090275,282.6913845231064  L 742.2318534711968,282.0603405419215 Z M 895.1571396884699,-68.48782603009317 L 901.5818400578901,-65.67760444173712  L 820.0659386656707,117.17999504317743  L 816.2137430031502,115.49501009587726 Z M 904.1405784389432,-64.52833273119018 L 910.5088653598057,-61.59251224858764  L 728.1142934389455,326.8638346732173  L 727.2118536244298,326.4478042203349 Z M 913.0445460723638,-60.39322458864069 L 919.353964448834,-57.3329370264741  L 865.282847041423,52.18334354220474  L 860.5146583540442,49.87060603402688 Z M 921.8656099397131,-56.0840957653495 L 928.1137273709019,-52.90052092272913  L 838.707169413545,119.56905794428741  L 834.886645849173,117.62240395784676 Z M 930.6003693529539,-51.60260751250604 L 936.7847770706528,-48.296972718135976  L 760.0918033759517,276.7685084104228  L 758.4836563545423,275.9089359192334 Z M 939.2454568960582,-46.95048752914079 L 945.3637706933673,-43.52406716815949  L 856.4766119677925,112.61686495053976  L 852.5568397277611,110.42168702103248 Z M 947.7975397232124,-42.12952929606422 L 953.8474008736949,-38.58364431874594  L 791.3127937526166,234.32203545971615  L 789.106285326738,233.0287784931451 Z M 956.2533208436896,-37.141591384446485 L 962.2323970107078,-33.47760879694903  L 790.4523309033909,242.47943706545067  L 788.3603106418961,241.19744540040193 Z M 964.6095403929048,-31.98859673930224 L 970.5155265287794,-28.20792907666015  L 710.5396992761122,371.71030509071596  L 710.2679375492994,371.53633909268154 Z M 972.862976889154,-26.672531938158897 L 978.6935961238039,-22.77663671972448  L 762.1513901383461,296.4330172868212  L 760.8188256109203,295.54262613594625 Z M 981.0104484755565,-21.195446425193268 L 986.7634529942759,-17.185825592734943  L 785.6063194272393,267.16279881769736  L 783.8609477525791,265.9463425113745 Z M 989.0488141467214,-15.559451721131722 L 994.7219860567549,-11.437651059807024  L 777.9813905817614,282.5229593129495  L 776.4521874903293,281.41192823306676 Z M 996.9749749596654,-9.766720609218623 L 1002.5661271452474,-5.53432915164484  L 725.6011226114593,355.0643142388983  L 725.0944277978895,354.68075630139833 Z M 1004.7858752285131,-3.8194862975676642 L 1010.2928521940445,0.5218642887816145  L 784.3848935111307,282.987882736172  L 782.8615809684533,281.78699995751896 Z M 1012.4785037025244,2.2799584417837764 L 1017.8991824035545,6.728594483615893  L 928.1311006706278,114.56040161373045  L 924.2315384820748,111.36011363206762 Z M 1020.0498947269864,8.529262156780248 L 1025.3821853886889,13.083468620217332  L 876.4878195042355,184.96100138895355  L 873.5806700756859,182.4780612122732 Z M 1027.4971293865312,14.926015621878548 L 1032.7389763093506,19.58403677363583  L 838.0504889421229,235.60433074070806  L 835.8573675058483,233.65547450950697 Z M 1034.817336630433,21.46775276685031 L 1039.9667189825977,26.227792851104084  L 816.8435383378205,264.23088073059733  L 815.0539758306669,262.5766261647565 Z M 1042.0076943794525,28.151951627498306 L 1047.0626269760428,33.012175558184765  L 907.3246450918384,176.32312396873874  L 904.2933209397484,173.40856202273122 Z M 1049.0654306138026,34.97603531792237 L 1054.0239646820776,39.934569386197154  L 814.3977354927645,276.2233973358256  L 812.7766026641743,274.60226450723553 Z M 1055.987824441815,41.93737302395698 L 1060.8480483725016,46.992305620547484  L 828.145998874757,267.6116416873942  L 826.4027382976328,265.79854318795714 Z M 1062.7722071488956,49.03328101740209 L 1067.5322472331495,54.18266336956697  L 806.798508091008,291.833488825517  L 805.397046477041,290.31739619300527 Z M 1069.415963226364,56.2610236906491 L 1074.0739843781212,61.502870613468644  L 967.7292492786362,154.67678424802736  L 964.3884051879047,150.9172063616079 Z M 1075.9165313797826,63.617814611311076 L 1080.4707378432197,68.95010527301343  L 938.81446676601,188.2282164432679  L 935.9470087031543,184.87085441452734 Z M 1082.271405516384,71.10081759644527 L 1086.720041558216,76.52149629747544  L 841.128288638199,275.20774532742246  L 839.4902828876097,273.2118295453961 Z M 1088.4781357112183,78.70714780595534 L 1092.8194862975674,84.21412477148681  L 746.838321329882,353.051247028403  L 746.3013055991488,352.3700458214388 Z M 1094.5343291516447,86.43387285475245 L 1098.7667206092187,92.02502504033492  L 1020.5295619819731,150.39053130277807  L 1017.1234124871434,145.89087658431941 Z M 1100.4376510598067,94.27801394324496 L 1104.5594517211316,99.95118585327845  L 830.7535627483762,295.96404191785996  L 829.4076741694414,294.1115852108454 Z M 1106.1858255927348,102.23654700572393 L 1110.195446425193,107.98955152444336  L 986.530115175641,192.8972844005408  L 983.7234457409513,188.87027471184118 Z M 1111.7766367197244,110.30640387619587 L 1115.6725319381587,116.1370231108458  L 741.5397690652022,362.3472406653265  L 741.1336461695314,361.7394347993153 Z M 1117.20792907666,118.48447347122044 L 1120.988596739302,124.39045960709495  L 852.0619489588745,293.8948162655179  L 850.6849448671272,291.743723442612 Z M 1122.477608796949,126.76760298929202 L 1126.1415913844464,132.74667915631028  L 840.5209810182413,305.0319058495507  L 839.301304155932,303.0415741040393 Z M 1127.583644318746,135.15259912630526 L 1131.129529296064,141.20246027678712  L 986.2249222715884,224.77287485484922  L 983.8653223070411,220.747010438065 Z M 1132.5240671681595,143.6362293066325 L 1135.9504875291407,149.7545431039416  L 822.8722345171257,322.21400677123063  L 821.895263879909,320.4695001726482 Z M 1137.2969727181357,152.21522292934665 L 1140.602607512506,158.39963064704594  L 996.0439970170812,234.36932812207843  L 993.8180168938958,230.20481222433983 Z M 1141.9005209227294,160.88627262909836 L 1145.0840957653495,167.1343900602871  L 1001.1123977190964,239.22443375107542  L 998.9540095925563,234.98835853897015 Z M 1146.332937026474,169.64603555116588 L 1149.3932245886406,175.95545392763597  L 903.3002014904349,293.1946138462565  L 901.9083382126819,290.3249986340273 Z M 1150.5925122485876,178.49113464019413 L 1153.52833273119,184.85942156105622  L 894.0894210030423,302.2635070820546  L 892.825650349852,299.5221766194553 Z M 1154.6776044417372,187.4181599421102 L 1157.4878260300934,193.8428603115304  L 976.6335838543152,271.4438392013757  L 974.9294644669669,267.5478985742035 Z M 1158.5866387251185,196.4236699187253 L 1161.270178025311,202.90230689241136  L 732.4612665390649,377.0079818537128  L 732.2616461717747,376.526055655675 Z M 1162.3181080916038,205.50419277451647 L 1164.873930548149,212.03426871458862  L 857.6436579474187,329.80415649660836  L 856.76971571306,327.57125133412995 Z M 1165.8705739887207,214.65622779506802 L 1168.2976942834096,221.23522523294565  L 852.3341125232139,335.28955070405306  L 851.5376224250887,333.1305698219238 Z M 1169.2426668732412,223.87624669666093 L 1171.5401493049976,230.50162930359483  L 1056.8632262367132,269.36941978756926  L 1055.122123694738,264.34850196071454 Z M 1172.4330867391682,233.1606949864992 L 1174.6000455847798,239.82990855137402  L 737.7964429075688,378.3771898064222  L 737.6155003021677,377.82030572860543 Z M 1175.4406036189102,242.50599333302787 L 1177.4762034744924,249.21646674706133  L 896.7357252122085,332.232843048339  L 895.891999474394,329.4514520412541 Z M 1178.2640580574598,251.90853894583975 L 1180.1675141605187,258.6576851937898  L 947.4036498458279,322.54525061859283  L 946.4190772948323,319.0542196840168 Z M 1180.902361559384,261.3647069646154 L 1182.672940091358,268.14992412212797  L 803.7046513701803,364.2070364006233  L 803.3184973868146,362.72721577360284 Z M 1183.35449700846,270.870851856576 L 1184.9915153776205,277.6895240932744  L 757.9887292706042,377.0421562839322  L 757.7870776018221,376.2022166343161 Z M 1185.6195190597941,280.42330882190873 L 1187.122346164398,287.2728074098463  L 1031.9546157464333,320.1789160410631  L 1030.928541079866,315.5023321823865 Z M 1187.6965545042692,290.0183952066151 L 1189.0646109758595,296.8960795337  L 1044.0404202506973,324.6874222707988  L 1043.0763865456108,319.8408975534778 Z M 1189.5848026051824,299.6524119222411 L 1190.8175610319477,306.5556305102431  L 815.231712363695,370.9123269592355  L 814.9384631113797,369.27018552621155 Z M 1191.2835354069468,309.32164487195234 L 1192.3805205370466,316.247736398696  L 934.6517971028686,355.2173249473119  L 934.1266884231188,351.9019192251724 Z M 1192.7920980157305,319.0223663823846 L 1193.7528869405153,325.9686607077426  L 1007.9478073953511,350.34199970067573  L 1007.3471161468451,345.9991330177313 Z M 1194.1099088519309,328.7508366407323 L 1194.9341311689805,335.71465583601355  L 955.7080624699904,362.32924056962645  L 955.2806240570327,358.7178316531457 Z M 1195.2364598743852,338.50330513652295 L 1195.9237978303067,345.4819645168653  L 1079.5641862327059,356.1190558802076  L 1079.0374720066318,350.7712365972999 Z M 1196.1713167762289,348.2760121075029 L 1196.7215053891564,355.2668212668703  L 836.2339384535475,381.0955984926082  L 836.0814390364671,379.15790967703884 Z M 1196.9141191523308,358.0651899891036 L 1197.3269463140805,365.0654538374895  L 845.3833188285525,383.3450566528432  L 845.2614671286785,381.27883105403146 Z M 1197.4645806382352,367.86706486690724 L 1197.7398871960777,374.874084669341  L 788.9613047065145,388.0648044399786  L 788.9111941503287,386.78940561818376 Z M 1197.8224890205604,377.67785793155974 L 1197.9601688385771,384.68893234852334  L 1081.5026496215512,386.1589920214952  L 1081.3970400584305,380.7810323695383 Z" /></svg>