<svg xmlns="http://www.w3.org/2000/svg" width="1920" height="1080"><path d="M-189,-242L176,-223L563,-261Z" fill="#e5f5df" stroke="#e5f5df" stroke-width="1.51"/><path d="M755,1293L627,1302L994,1303Z" fill="#5f8da6" stroke="#5f8da6" stroke-width="1.51"/><path d="M627,1302L322,1334L994,1303Z" fill="#6b90a2" stroke="#6b90a2" stroke-width="1.51"/><path d="M563,-261L782,-242L1284,-244Z" fill="#bfe6d6" stroke="#bfe6d6" stroke-width="1.51"/><path d="M938,-228L1039,-224L1284,-244Z" fill="#b2ddda" stroke="#b2ddda" stroke-width="1.51"/><path d="M782,-242L938,-228L1284,-244Z" fill="#b7e1d8" stroke="#b7e1d8" stroke-width="1.51"/><path d="M1207,1308L994,1303L1476,1342Z" fill="#377dae" stroke="#377dae" stroke-width="1.51"/><path d="M994,1303L322,1334L1476,1342Z" fill="#5287a6" stroke="#5287a6" stroke-width="1.51"/><path d="M2065,417L1981,586L2074,580Z" fill="#528cab" stroke="#528cab" stroke-width="1.51"/><path d="M1981,586L2041,743L2074,580Z" fill="#4486af" stroke="#4486af" stroke-width="1.51"/><path d="M2064,-75L1947,112L2079,137Z" fill="#809bb1" stroke="#809bb1" stroke-width="1.51"/><path d="M2074,580L2041,743L2092,794Z" fill="#3a80af" stroke="#3a80af" stroke-width="1.51"/><path d="M1926,284L2065,417L2099,191Z" fill="#6e94a7" stroke="#6e94a7" stroke-width="1.51"/><path d="M2065,417L2074,580L2099,191Z" fill="#638da4" stroke="#638da4" stroke-width="1.51"/><path d="M2064,-75L2079,137L2099,191Z" fill="#7d97ac" stroke="#7d97ac" stroke-width="1.51"/><path d="M2074,580L2092,794L2099,191Z" fill="#5288a7" stroke="#5288a7" stroke-width="1.51"/><path d="M563,-261L1284,-244L2100,-263Z" fill="#a8d3de" stroke="#a8d3de" stroke-width="1.51"/><path d="M1284,-244L1678,-232L2100,-263Z" fill="#99b9d1" stroke="#99b9d1" stroke-width="1.51"/><path d="M1791,-194L1901,-188L2100,-263Z" fill="#90a8c6" stroke="#90a8c6" stroke-width="1.51"/><path d="M1678,-232L1791,-194L2100,-263Z" fill="#93aecc" stroke="#93aecc" stroke-width="1.51"/><path d="M1901,-188L2064,-75L2100,-263Z" fill="#8ca0bd" stroke="#8ca0bd" stroke-width="1.51"/><path d="M2064,-75L2099,191L2100,-263Z" fill="#8399b2" stroke="#8399b2" stroke-width="1.51"/><path d="M2039,1092L1954,1192L2115,1313Z" fill="#09589b" stroke="#09589b" stroke-width="1.51"/><path d="M1954,1192L1937,1325L2115,1313Z" fill="#0a5395" stroke="#0a5395" stroke-width="1.51"/><path d="M2092,794L2050,961L2115,1313Z" fill="#1964a1" stroke="#1964a1" stroke-width="1.51"/><path d="M2050,961L2039,1092L2115,1313Z" fill="#0e5d9e" stroke="#0e5d9e" stroke-width="1.51"/><path d="M2099,191L2092,794L2115,1313Z" fill="#317aad" stroke="#317aad" stroke-width="1.51"/><path d="M1914,783L2050,961L2092,794Z" fill="#2a78af" stroke="#2a78af" stroke-width="1.51"/><path d="M2041,743L1914,783L2092,794Z" fill="#317fb2" stroke="#317fb2" stroke-width="1.51"/><path d="M2079,137L1947,112L2099,191Z" fill="#7b98ac" stroke="#7b98ac" stroke-width="1.51"/><path d="M1947,112L1926,284L2099,191Z" fill="#789aae" stroke="#789aae" stroke-width="1.51"/><path d="M1914,783L1979,984L2050,961Z" fill="#2475ae" stroke="#2475ae" stroke-width="1.51"/><path d="M1979,984L2039,1092L2050,961Z" fill="#1969a6" stroke="#1969a6" stroke-width="1.51"/><path d="M1819,1267L1594,1274L1937,1325Z" fill="#115fa1" stroke="#115fa1" stroke-width="1.51"/><path d="M1594,1274L1476,1342L1937,1325Z" fill="#1864a1" stroke="#1864a1" stroke-width="1.51"/><path d="M1981,586L1921,672L2041,743Z" fill="#4188b4" stroke="#4188b4" stroke-width="1.51"/><path d="M1893,-88L1947,112L2064,-75Z" fill="#85a1b9" stroke="#85a1b9" stroke-width="1.51"/><path d="M1901,-188L1893,-88L2064,-75Z" fill="#8aa4bf" stroke="#8aa4bf" stroke-width="1.51"/><path d="M1900,414L1981,586L2065,417Z" fill="#5b92ad" stroke="#5b92ad" stroke-width="1.51"/><path d="M1926,284L1900,414L2065,417Z" fill="#6897ac" stroke="#6897ac" stroke-width="1.51"/><path d="M1039,-224L1159,-226L1284,-244Z" fill="#aedadd" stroke="#aedadd" stroke-width="1.51"/><path d="M1921,672L1914,783L2041,743Z" fill="#3787b8" stroke="#3787b8" stroke-width="1.51"/><path d="M1979,984L1954,1192L2039,1092Z" fill="#1365a5" stroke="#1365a5" stroke-width="1.51"/><path d="M1783,812L1802,982L1914,783Z" fill="#2a84bb" stroke="#2a84bb" stroke-width="1.51"/><path d="M1893,-88L1820,65L1947,112Z" fill="#86a6bd" stroke="#86a6bd" stroke-width="1.51"/><path d="M1804,264L1926,284L1947,112Z" fill="#79a2b4" stroke="#79a2b4" stroke-width="1.51"/><path d="M1802,982L1734,1090L1954,1192Z" fill="#1470b0" stroke="#1470b0" stroke-width="1.51"/><path d="M1802,982L1954,1192L1979,984Z" fill="#166dac" stroke="#166dac" stroke-width="1.51"/><path d="M1914,783L1802,982L1979,984Z" fill="#237bb4" stroke="#237bb4" stroke-width="1.51"/><path d="M1748,528L1921,672L1981,586Z" fill="#4c93b9" stroke="#4c93b9" stroke-width="1.51"/><path d="M1900,414L1748,528L1981,586Z" fill="#5899b7" stroke="#5899b7" stroke-width="1.51"/><path d="M1819,1267L1937,1325L1954,1192Z" fill="#0a5b9e" stroke="#0a5b9e" stroke-width="1.51"/><path d="M1824,378L1900,414L1926,284Z" fill="#6b9eb1" stroke="#6b9eb1" stroke-width="1.51"/><path d="M1820,65L1804,264L1947,112Z" fill="#80a6b9" stroke="#80a6b9" stroke-width="1.51"/><path d="M1734,1090L1819,1267L1954,1192Z" fill="#0b67aa" stroke="#0b67aa" stroke-width="1.51"/><path d="M1748,528L1739,647L1921,672Z" fill="#4b98bd" stroke="#4b98bd" stroke-width="1.51"/><path d="M1783,812L1914,783L1921,672Z" fill="#348bbe" stroke="#348bbe" stroke-width="1.51"/><path d="M1739,647L1783,812L1921,672Z" fill="#3d91c0" stroke="#3d91c0" stroke-width="1.51"/><path d="M1804,264L1824,378L1926,284Z" fill="#71a2b3" stroke="#71a2b3" stroke-width="1.51"/><path d="M1824,378L1748,528L1900,414Z" fill="#629eb6" stroke="#629eb6" stroke-width="1.51"/><path d="M1791,-194L1893,-88L1901,-188Z" fill="#8facc8" stroke="#8facc8" stroke-width="1.51"/><path d="M1747,-104L1820,65L1893,-88Z" fill="#8aadc3" stroke="#8aadc3" stroke-width="1.51"/><path d="M1791,-194L1747,-104L1893,-88Z" fill="#8fafc8" stroke="#8fafc8" stroke-width="1.51"/><path d="M1284,-244L1465,-180L1678,-232Z" fill="#9fc7d7" stroke="#9fc7d7" stroke-width="1.51"/><path d="M1783,812L1621,882L1802,982Z" fill="#2b87bc" stroke="#2b87bc" stroke-width="1.51"/><path d="M1616,65L1605,237L1804,264Z" fill="#81b1bd" stroke="#81b1bd" stroke-width="1.51"/><path d="M1734,1090L1594,1274L1819,1267Z" fill="#156bab" stroke="#156bab" stroke-width="1.51"/><path d="M1747,-104L1622,-30L1820,65Z" fill="#8cb2c5" stroke="#8cb2c5" stroke-width="1.51"/><path d="M1622,-30L1616,65L1820,65Z" fill="#8bb4c3" stroke="#8bb4c3" stroke-width="1.51"/><path d="M1616,65L1804,264L1820,65Z" fill="#84aebd" stroke="#84aebd" stroke-width="1.51"/><path d="M1804,264L1606,338L1824,378Z" fill="#72a8b6" stroke="#72a8b6" stroke-width="1.51"/><path d="M1606,338L1748,528L1824,378Z" fill="#68a5b8" stroke="#68a5b8" stroke-width="1.51"/><path d="M1739,647L1684,643L1783,812Z" fill="#4097c2" stroke="#4097c2" stroke-width="1.51"/><path d="M1621,882L1618,1013L1802,982Z" fill="#2684ba" stroke="#2684ba" stroke-width="1.51"/><path d="M1605,237L1606,338L1804,264Z" fill="#79aeb9" stroke="#79aeb9" stroke-width="1.51"/><path d="M1618,1013L1734,1090L1802,982Z" fill="#207cb6" stroke="#207cb6" stroke-width="1.51"/><path d="M1588,1117L1594,1274L1734,1090Z" fill="#1a75b3" stroke="#1a75b3" stroke-width="1.51"/><path d="M1680,591L1739,647L1748,528Z" fill="#509ebe" stroke="#509ebe" stroke-width="1.51"/><path d="M1684,643L1621,882L1783,812Z" fill="#3794c3" stroke="#3794c3" stroke-width="1.51"/><path d="M1678,-232L1747,-104L1791,-194Z" fill="#94b4cd" stroke="#94b4cd" stroke-width="1.51"/><path d="M1680,591L1684,643L1739,647Z" fill="#4c9dc0" stroke="#4c9dc0" stroke-width="1.51"/><path d="M1678,-232L1622,-30L1747,-104Z" fill="#93b7cc" stroke="#93b7cc" stroke-width="1.51"/><path d="M1606,338L1680,591L1748,528Z" fill="#5fa6bc" stroke="#5fa6bc" stroke-width="1.51"/><path d="M1528,644L1621,882L1684,643Z" fill="#409ec6" stroke="#409ec6" stroke-width="1.51"/><path d="M1618,1013L1588,1117L1734,1090Z" fill="#207cb6" stroke="#207cb6" stroke-width="1.51"/><path d="M1527,-78L1622,-30L1678,-232Z" fill="#94bcce" stroke="#94bcce" stroke-width="1.51"/><path d="M1465,-180L1527,-78L1678,-232Z" fill="#98c0d2" stroke="#98c0d2" stroke-width="1.51"/><path d="M1437,532L1528,644L1680,591Z" fill="#55a9c4" stroke="#55a9c4" stroke-width="1.51"/><path d="M1471,403L1437,532L1680,591Z" fill="#60afc1" stroke="#60afc1" stroke-width="1.51"/><path d="M1606,338L1471,403L1680,591Z" fill="#67aebd" stroke="#67aebd" stroke-width="1.51"/><path d="M1680,591L1528,644L1684,643Z" fill="#4ea1c2" stroke="#4ea1c2" stroke-width="1.51"/><path d="M1528,644L1429,805L1621,882Z" fill="#3d9ec8" stroke="#3d9ec8" stroke-width="1.51"/><path d="M1588,1117L1515,1156L1594,1274Z" fill="#1e77b2" stroke="#1e77b2" stroke-width="1.51"/><path d="M1444,70L1451,238L1605,237Z" fill="#88bcc2" stroke="#88bcc2" stroke-width="1.51"/><path d="M1444,70L1605,237L1616,65Z" fill="#8abbc2" stroke="#8abbc2" stroke-width="1.51"/><path d="M1527,-78L1444,70L1616,65Z" fill="#90bec9" stroke="#90bec9" stroke-width="1.51"/><path d="M1510,1011L1588,1117L1618,1013Z" fill="#2583ba" stroke="#2583ba" stroke-width="1.51"/><path d="M1510,1011L1618,1013L1621,882Z" fill="#2989bd" stroke="#2989bd" stroke-width="1.51"/><path d="M1527,-78L1616,65L1622,-30Z" fill="#90bbc9" stroke="#90bbc9" stroke-width="1.51"/><path d="M1429,805L1510,1011L1621,882Z" fill="#3393c2" stroke="#3393c2" stroke-width="1.51"/><path d="M1605,237L1451,238L1606,338Z" fill="#7db6bd" stroke="#7db6bd" stroke-width="1.51"/><path d="M1451,238L1471,403L1606,338Z" fill="#79b7bd" stroke="#79b7bd" stroke-width="1.51"/><path d="M1510,1011L1515,1156L1588,1117Z" fill="#2481b9" stroke="#2481b9" stroke-width="1.51"/><path d="M1515,1156L1476,1342L1594,1274Z" fill="#2172ab" stroke="#2172ab" stroke-width="1.51"/><path d="M1287,1278L1207,1308L1476,1342Z" fill="#2f79ad" stroke="#2f79ad" stroke-width="1.51"/><path d="M1429,805L1331,895L1510,1011Z" fill="#3999c5" stroke="#3999c5" stroke-width="1.51"/><path d="M1287,1278L1476,1342L1515,1156Z" fill="#2978af" stroke="#2978af" stroke-width="1.51"/><path d="M1349,1109L1287,1278L1515,1156Z" fill="#2c83b8" stroke="#2c83b8" stroke-width="1.51"/><path d="M1510,1011L1349,1109L1515,1156Z" fill="#2b86bc" stroke="#2b86bc" stroke-width="1.51"/><path d="M1293,-112L1444,70L1527,-78Z" fill="#97c7d0" stroke="#97c7d0" stroke-width="1.51"/><path d="M1437,532L1310,636L1528,644Z" fill="#59b0c8" stroke="#59b0c8" stroke-width="1.51"/><path d="M1310,636L1429,805L1528,644Z" fill="#4eabcc" stroke="#4eabcc" stroke-width="1.51"/><path d="M1331,895L1316,972L1510,1011Z" fill="#3696c3" stroke="#3696c3" stroke-width="1.51"/><path d="M1465,-180L1293,-112L1527,-78Z" fill="#9cc8d4" stroke="#9cc8d4" stroke-width="1.51"/><path d="M1444,70L1378,97L1451,238Z" fill="#8fc3c6" stroke="#8fc3c6" stroke-width="1.51"/><path d="M1451,238L1360,263L1471,403Z" fill="#7fbdc0" stroke="#7fbdc0" stroke-width="1.51"/><path d="M1316,972L1349,1109L1510,1011Z" fill="#3390c1" stroke="#3390c1" stroke-width="1.51"/><path d="M1293,-112L1378,97L1444,70Z" fill="#97c9cf" stroke="#97c9cf" stroke-width="1.51"/><path d="M1360,263L1291,337L1471,403Z" fill="#7ec0c1" stroke="#7ec0c1" stroke-width="1.51"/><path d="M1284,540L1437,532L1471,403Z" fill="#68b8c5" stroke="#68b8c5" stroke-width="1.51"/><path d="M1291,337L1284,540L1471,403Z" fill="#73bec5" stroke="#73bec5" stroke-width="1.51"/><path d="M1378,97L1360,263L1451,238Z" fill="#8ac3c5" stroke="#8ac3c5" stroke-width="1.51"/><path d="M1284,-244L1293,-112L1465,-180Z" fill="#a2ced9" stroke="#a2ced9" stroke-width="1.51"/><path d="M1284,540L1310,636L1437,532Z" fill="#60b8ca" stroke="#60b8ca" stroke-width="1.51"/><path d="M1310,636L1206,824L1429,805Z" fill="#4baed0" stroke="#4baed0" stroke-width="1.51"/><path d="M1206,824L1331,895L1429,805Z" fill="#44a6cc" stroke="#44a6cc" stroke-width="1.51"/><path d="M1239,509L1284,540L1291,337Z" fill="#72c1c8" stroke="#72c1c8" stroke-width="1.51"/><path d="M1181,734L1206,824L1310,636Z" fill="#53b5d2" stroke="#53b5d2" stroke-width="1.51"/><path d="M1153,224L1360,263L1378,97Z" fill="#8ec9c9" stroke="#8ec9c9" stroke-width="1.51"/><path d="M1166,47L1153,224L1378,97Z" fill="#98d0cd" stroke="#98d0cd" stroke-width="1.51"/><path d="M1293,-112L1166,47L1378,97Z" fill="#9bcfd2" stroke="#9bcfd2" stroke-width="1.51"/><path d="M1151,1129L1287,1278L1349,1109Z" fill="#348bbe" stroke="#348bbe" stroke-width="1.51"/><path d="M1153,224L1291,337L1360,263Z" fill="#88c9c7" stroke="#88c9c7" stroke-width="1.51"/><path d="M1316,972L1151,1129L1349,1109Z" fill="#3893c3" stroke="#3893c3" stroke-width="1.51"/><path d="M1144,404L1239,509L1291,337Z" fill="#7bc6c6" stroke="#7bc6c6" stroke-width="1.51"/><path d="M1132,963L1151,1129L1316,972Z" fill="#429cc4" stroke="#429cc4" stroke-width="1.51"/><path d="M1206,824L1316,972L1331,895Z" fill="#42a3cb" stroke="#42a3cb" stroke-width="1.51"/><path d="M1152,-116L1166,47L1293,-112Z" fill="#a2d5d5" stroke="#a2d5d5" stroke-width="1.51"/><path d="M1284,-244L1159,-226L1293,-112Z" fill="#a8d6dd" stroke="#a8d6dd" stroke-width="1.51"/><path d="M1206,824L1132,963L1316,972Z" fill="#45a4c9" stroke="#45a4c9" stroke-width="1.51"/><path d="M1239,509L1090,589L1284,540Z" fill="#6bc1ca" stroke="#6bc1ca" stroke-width="1.51"/><path d="M1151,1129L1207,1308L1287,1278Z" fill="#3986b6" stroke="#3986b6" stroke-width="1.51"/><path d="M1159,-226L1152,-116L1293,-112Z" fill="#a8d7d9" stroke="#a8d7d9" stroke-width="1.51"/><path d="M1284,540L1090,589L1310,636Z" fill="#64becd" stroke="#64becd" stroke-width="1.51"/><path d="M1090,589L1181,734L1310,636Z" fill="#60bbce" stroke="#60bbce" stroke-width="1.51"/><path d="M1153,224L1144,404L1291,337Z" fill="#88cbc3" stroke="#88cbc3" stroke-width="1.51"/><path d="M-69,1307L-154,1318L322,1334Z" fill="#8599b4" stroke="#8599b4" stroke-width="1.51"/><path d="M1132,963L1088,1092L1151,1129Z" fill="#489bc1" stroke="#489bc1" stroke-width="1.51"/><path d="M1144,404L1090,589L1239,509Z" fill="#74c5c8" stroke="#74c5c8" stroke-width="1.51"/><path d="M1070,1021L1088,1092L1132,963Z" fill="#4c9fc2" stroke="#4c9fc2" stroke-width="1.51"/><path d="M1063,378L1144,404L1153,224Z" fill="#8bcec1" stroke="#8bcec1" stroke-width="1.51"/><path d="M1152,-116L1049,-90L1166,47Z" fill="#a6d8d2" stroke="#a6d8d2" stroke-width="1.51"/><path d="M1035,67L1153,224L1166,47Z" fill="#9ed5ca" stroke="#9ed5ca" stroke-width="1.51"/><path d="M1181,734L1021,849L1206,824Z" fill="#56b2cd" stroke="#56b2cd" stroke-width="1.51"/><path d="M1021,849L1132,963L1206,824Z" fill="#52acc9" stroke="#52acc9" stroke-width="1.51"/><path d="M1151,1129L994,1303L1207,1308Z" fill="#4389b3" stroke="#4389b3" stroke-width="1.51"/><path d="M1042,221L1063,378L1153,224Z" fill="#92d1c2" stroke="#92d1c2" stroke-width="1.51"/><path d="M1035,67L1042,221L1153,224Z" fill="#9cd5c6" stroke="#9cd5c6" stroke-width="1.51"/><path d="M1049,-90L1035,67L1166,47Z" fill="#a6d9ce" stroke="#a6d9ce" stroke-width="1.51"/><path d="M1090,589L1020,745L1181,734Z" fill="#63bdcd" stroke="#63bdcd" stroke-width="1.51"/><path d="M1020,745L1021,849L1181,734Z" fill="#5db7cd" stroke="#5db7cd" stroke-width="1.51"/><path d="M1063,378L1090,589L1144,404Z" fill="#7dc9c5" stroke="#7dc9c5" stroke-width="1.51"/><path d="M1088,1092L994,1303L1151,1129Z" fill="#4892ba" stroke="#4892ba" stroke-width="1.51"/><path d="M1039,-224L1152,-116L1159,-226Z" fill="#aedbd9" stroke="#aedbd9" stroke-width="1.51"/><path d="M1039,-224L1049,-90L1152,-116Z" fill="#aedcd6" stroke="#aedcd6" stroke-width="1.51"/><path d="M1063,378L940,439L1090,589Z" fill="#80ccc4" stroke="#80ccc4" stroke-width="1.51"/><path d="M1021,849L1070,1021L1132,963Z" fill="#51a8c5" stroke="#51a8c5" stroke-width="1.51"/><path d="M1021,849L883,884L1070,1021Z" fill="#5aadc4" stroke="#5aadc4" stroke-width="1.51"/><path d="M885,1259L994,1303L1088,1092Z" fill="#4f91b3" stroke="#4f91b3" stroke-width="1.51"/><path d="M838,1136L885,1259L1088,1092Z" fill="#5598b8" stroke="#5598b8" stroke-width="1.51"/><path d="M872,1032L838,1136L1088,1092Z" fill="#59a0bb" stroke="#59a0bb" stroke-width="1.51"/><path d="M926,675L1020,745L1090,589Z" fill="#6cc2cb" stroke="#6cc2cb" stroke-width="1.51"/><path d="M940,439L926,675L1090,589Z" fill="#77c9c6" stroke="#77c9c6" stroke-width="1.51"/><path d="M1070,1021L872,1032L1088,1092Z" fill="#53a1bf" stroke="#53a1bf" stroke-width="1.51"/><path d="M847,241L940,439L1042,221Z" fill="#97d6be" stroke="#97d6be" stroke-width="1.51"/><path d="M895,-9L1035,67L1049,-90Z" fill="#abdccd" stroke="#abdccd" stroke-width="1.51"/><path d="M1039,-224L938,-228L1049,-90Z" fill="#b3e0d6" stroke="#b3e0d6" stroke-width="1.51"/><path d="M1042,221L940,439L1063,378Z" fill="#8fd1bf" stroke="#8fd1bf" stroke-width="1.51"/><path d="M883,884L872,1032L1070,1021Z" fill="#5ba9c0" stroke="#5ba9c0" stroke-width="1.51"/><path d="M853,488L926,675L940,439Z" fill="#81cdc3" stroke="#81cdc3" stroke-width="1.51"/><path d="M885,1259L755,1293L994,1303Z" fill="#588da9" stroke="#588da9" stroke-width="1.51"/><path d="M1035,67L847,241L1042,221Z" fill="#a1d9c3" stroke="#a1d9c3" stroke-width="1.51"/><path d="M858,34L847,241L1035,67Z" fill="#aaddc4" stroke="#aaddc4" stroke-width="1.51"/><path d="M938,-228L895,-9L1049,-90Z" fill="#b1e0d1" stroke="#b1e0d1" stroke-width="1.51"/><path d="M1020,745L883,884L1021,849Z" fill="#61b7c8" stroke="#61b7c8" stroke-width="1.51"/><path d="M895,-9L858,34L1035,67Z" fill="#addec9" stroke="#addec9" stroke-width="1.51"/><path d="M926,675L883,884L1020,745Z" fill="#68beca" stroke="#68beca" stroke-width="1.51"/><path d="M788,735L883,884L926,675Z" fill="#6fc0c8" stroke="#6fc0c8" stroke-width="1.51"/><path d="M789,-65L895,-9L938,-228Z" fill="#b7e3ce" stroke="#b7e3ce" stroke-width="1.51"/><path d="M853,488L776,492L926,675Z" fill="#83cec2" stroke="#83cec2" stroke-width="1.51"/><path d="M776,492L788,735L926,675Z" fill="#7ec9c5" stroke="#7ec9c5" stroke-width="1.51"/><path d="M782,-242L789,-65L938,-228Z" fill="#bee5d1" stroke="#bee5d1" stroke-width="1.51"/><path d="M752,374L853,488L940,439Z" fill="#91d3be" stroke="#91d3be" stroke-width="1.51"/><path d="M847,241L752,374L940,439Z" fill="#99d7ba" stroke="#99d7ba" stroke-width="1.51"/><path d="M788,735L760,806L883,884Z" fill="#72bdc5" stroke="#72bdc5" stroke-width="1.51"/><path d="M176,-223L436,-220L563,-261Z" fill="#ddf2d7" stroke="#ddf2d7" stroke-width="1.51"/><path d="M780,255L752,374L847,241Z" fill="#a3daba" stroke="#a3daba" stroke-width="1.51"/><path d="M706,50L780,255L847,241Z" fill="#aedfbe" stroke="#aedfbe" stroke-width="1.51"/><path d="M706,50L847,241L858,34Z" fill="#b2e1c2" stroke="#b2e1c2" stroke-width="1.51"/><path d="M710,976L872,1032L883,884Z" fill="#68aebe" stroke="#68aebe" stroke-width="1.51"/><path d="M838,1136L746,1158L885,1259Z" fill="#6099b3" stroke="#6099b3" stroke-width="1.51"/><path d="M789,-65L858,34L895,-9Z" fill="#b5e1c9" stroke="#b5e1c9" stroke-width="1.51"/><path d="M752,374L776,492L853,488Z" fill="#93d4bd" stroke="#93d4bd" stroke-width="1.51"/><path d="M760,806L710,976L883,884Z" fill="#70b6c0" stroke="#70b6c0" stroke-width="1.51"/><path d="M746,1158L755,1293L885,1259Z" fill="#6194ad" stroke="#6194ad" stroke-width="1.51"/><path d="M776,492L638,666L788,735Z" fill="#86cdc2" stroke="#86cdc2" stroke-width="1.51"/><path d="M710,976L746,1158L838,1136Z" fill="#69a4b7" stroke="#69a4b7" stroke-width="1.51"/><path d="M710,976L838,1136L872,1032Z" fill="#66a7ba" stroke="#66a7ba" stroke-width="1.51"/><path d="M789,-65L706,50L858,34Z" fill="#b8e3c6" stroke="#b8e3c6" stroke-width="1.51"/><path d="M628,555L638,666L776,492Z" fill="#8fd2be" stroke="#8fd2be" stroke-width="1.51"/><path d="M129,1294L-69,1307L322,1334Z" fill="#8399b2" stroke="#8399b2" stroke-width="1.51"/><path d="M632,809L710,976L760,806Z" fill="#79bbc0" stroke="#79bbc0" stroke-width="1.51"/><path d="M706,50L561,119L780,255Z" fill="#b8e3bd" stroke="#b8e3bd" stroke-width="1.51"/><path d="M561,119L558,243L780,255Z" fill="#b5e2ba" stroke="#b5e2ba" stroke-width="1.51"/><path d="M563,-261L624,-35L782,-242Z" fill="#caeacd" stroke="#caeacd" stroke-width="1.51"/><path d="M782,-242L624,-35L789,-65Z" fill="#c1e7cc" stroke="#c1e7cc" stroke-width="1.51"/><path d="M624,-35L706,50L789,-65Z" fill="#bee6c5" stroke="#bee6c5" stroke-width="1.51"/><path d="M638,666L760,806L788,735Z" fill="#7ec6c6" stroke="#7ec6c6" stroke-width="1.51"/><path d="M638,666L632,809L760,806Z" fill="#81c6c5" stroke="#81c6c5" stroke-width="1.51"/><path d="M752,374L593,445L776,492Z" fill="#9bd7ba" stroke="#9bd7ba" stroke-width="1.51"/><path d="M558,243L752,374L780,255Z" fill="#aadeb8" stroke="#aadeb8" stroke-width="1.51"/><path d="M746,1158L627,1302L755,1293Z" fill="#6895aa" stroke="#6895aa" stroke-width="1.51"/><path d="M593,445L628,555L776,492Z" fill="#97d6bb" stroke="#97d6bb" stroke-width="1.51"/><path d="M425,1279L322,1334L627,1302Z" fill="#7694a8" stroke="#7694a8" stroke-width="1.51"/><path d="M710,976L529,1037L746,1158Z" fill="#73aab6" stroke="#73aab6" stroke-width="1.51"/><path d="M529,1037L562,1181L746,1158Z" fill="#73a4b5" stroke="#73a4b5" stroke-width="1.51"/><path d="M562,1181L627,1302L746,1158Z" fill="#6e9bac" stroke="#6e9bac" stroke-width="1.51"/><path d="M558,243L593,445L752,374Z" fill="#a8dcb7" stroke="#a8dcb7" stroke-width="1.51"/><path d="M632,809L489,860L710,976Z" fill="#7ebbbf" stroke="#7ebbbf" stroke-width="1.51"/><path d="M489,860L529,1037L710,976Z" fill="#7cb5bd" stroke="#7cb5bd" stroke-width="1.51"/><path d="M624,-35L561,119L706,50Z" fill="#c0e6c2" stroke="#c0e6c2" stroke-width="1.51"/><path d="M436,-220L476,-18L563,-261Z" fill="#d3eed1" stroke="#d3eed1" stroke-width="1.51"/><path d="M558,243L482,424L593,445Z" fill="#acdeba" stroke="#acdeba" stroke-width="1.51"/><path d="M563,-261L476,-18L624,-35Z" fill="#ccebcc" stroke="#ccebcc" stroke-width="1.51"/><path d="M476,-18L561,119L624,-35Z" fill="#c6e9c5" stroke="#c6e9c5" stroke-width="1.51"/><path d="M480,710L632,809L638,666Z" fill="#89cbc6" stroke="#89cbc6" stroke-width="1.51"/><path d="M628,555L480,710L638,666Z" fill="#90d0c3" stroke="#90d0c3" stroke-width="1.51"/><path d="M410,517L480,710L628,555Z" fill="#99d4c3" stroke="#99d4c3" stroke-width="1.51"/><path d="M480,710L489,860L632,809Z" fill="#88c6c6" stroke="#88c6c6" stroke-width="1.51"/><path d="M482,424L410,517L593,445Z" fill="#a5dbbe" stroke="#a5dbbe" stroke-width="1.51"/><path d="M562,1181L425,1279L627,1302Z" fill="#7398ab" stroke="#7398ab" stroke-width="1.51"/><path d="M593,445L410,517L628,555Z" fill="#9ed8bf" stroke="#9ed8bf" stroke-width="1.51"/><path d="M489,860L442,1010L529,1037Z" fill="#81b6bf" stroke="#81b6bf" stroke-width="1.51"/><path d="M529,1037L466,1165L562,1181Z" fill="#79a6b7" stroke="#79a6b7" stroke-width="1.51"/><path d="M378,200L317,293L482,424Z" fill="#bbe5bd" stroke="#bbe5bd" stroke-width="1.51"/><path d="M378,200L482,424L558,243Z" fill="#b8e3bb" stroke="#b8e3bb" stroke-width="1.51"/><path d="M450,130L558,243L561,119Z" fill="#c0e6bf" stroke="#c0e6bf" stroke-width="1.51"/><path d="M476,-18L450,130L561,119Z" fill="#c7e9c4" stroke="#c7e9c4" stroke-width="1.51"/><path d="M466,1165L425,1279L562,1181Z" fill="#789eb1" stroke="#789eb1" stroke-width="1.51"/><path d="M450,130L378,200L558,243Z" fill="#c1e6c0" stroke="#c1e6c0" stroke-width="1.51"/><path d="M442,1010L466,1165L529,1037Z" fill="#7eacbb" stroke="#7eacbb" stroke-width="1.51"/><path d="M176,-223L301,-169L436,-220Z" fill="#dff2d8" stroke="#dff2d8" stroke-width="1.51"/><path d="M301,-169L293,-90L436,-220Z" fill="#dbf1d4" stroke="#dbf1d4" stroke-width="1.51"/><path d="M442,1010L308,1160L466,1165Z" fill="#81aabb" stroke="#81aabb" stroke-width="1.51"/><path d="M436,-220L293,-90L476,-18Z" fill="#d5efd0" stroke="#d5efd0" stroke-width="1.51"/><path d="M287,56L450,130L476,-18Z" fill="#cdecc8" stroke="#cdecc8" stroke-width="1.51"/><path d="M410,517L331,703L480,710Z" fill="#9bd4c7" stroke="#9bd4c7" stroke-width="1.51"/><path d="M286,883L442,1010L489,860Z" fill="#89bcc3" stroke="#89bcc3" stroke-width="1.51"/><path d="M480,710L331,703L489,860Z" fill="#91ccca" stroke="#91ccca" stroke-width="1.51"/><path d="M331,703L286,883L489,860Z" fill="#92c8c9" stroke="#92c8c9" stroke-width="1.51"/><path d="M246,423L288,495L317,293Z" fill="#b6e2c2" stroke="#b6e2c2" stroke-width="1.51"/><path d="M288,495L410,517L482,424Z" fill="#aaddc2" stroke="#aaddc2" stroke-width="1.51"/><path d="M317,293L288,495L482,424Z" fill="#b3e1bf" stroke="#b3e1bf" stroke-width="1.51"/><path d="M293,-90L287,56L476,-18Z" fill="#d4eecd" stroke="#d4eecd" stroke-width="1.51"/><path d="M308,1160L425,1279L466,1165Z" fill="#7ea1b4" stroke="#7ea1b4" stroke-width="1.51"/><path d="M287,56L378,200L450,130Z" fill="#cbeac4" stroke="#cbeac4" stroke-width="1.51"/><path d="M288,495L331,703L410,517Z" fill="#a4d9c6" stroke="#a4d9c6" stroke-width="1.51"/><path d="M239,953L308,1160L442,1010Z" fill="#87b2c0" stroke="#87b2c0" stroke-width="1.51"/><path d="M286,883L239,953L442,1010Z" fill="#8cbbc4" stroke="#8cbbc4" stroke-width="1.51"/><path d="M308,1160L322,1334L425,1279Z" fill="#7e9cb0" stroke="#7e9cb0" stroke-width="1.51"/><path d="M287,56L317,293L378,200Z" fill="#c8eac4" stroke="#c8eac4" stroke-width="1.51"/><path d="M183,53L173,294L287,56Z" fill="#d1edca" stroke="#d1edca" stroke-width="1.51"/><path d="M239,953L83,1105L308,1160Z" fill="#8ab1c3" stroke="#8ab1c3" stroke-width="1.51"/><path d="M287,56L173,294L317,293Z" fill="#c8eac5" stroke="#c8eac5" stroke-width="1.51"/><path d="M308,1160L129,1294L322,1334Z" fill="#819db3" stroke="#819db3" stroke-width="1.51"/><path d="M133,700L286,883L331,703Z" fill="#99ced0" stroke="#99ced0" stroke-width="1.51"/><path d="M288,495L137,592L331,703Z" fill="#a5d9cb" stroke="#a5d9cb" stroke-width="1.51"/><path d="M137,592L133,700L331,703Z" fill="#a2d6cf" stroke="#a2d6cf" stroke-width="1.51"/><path d="M183,53L287,56L293,-90Z" fill="#d6efcf" stroke="#d6efcf" stroke-width="1.51"/><path d="M173,294L246,423L317,293Z" fill="#bee6c1" stroke="#bee6c1" stroke-width="1.51"/><path d="M133,700L125,889L286,883Z" fill="#97c9cf" stroke="#97c9cf" stroke-width="1.51"/><path d="M138,-16L183,53L293,-90Z" fill="#d8f0d2" stroke="#d8f0d2" stroke-width="1.51"/><path d="M83,1105L129,1294L308,1160Z" fill="#86a6be" stroke="#86a6be" stroke-width="1.51"/><path d="M176,-223L293,-90L301,-169Z" fill="#def3d8" stroke="#def3d8" stroke-width="1.51"/><path d="M176,-223L138,-16L293,-90Z" fill="#ddf2d7" stroke="#ddf2d7" stroke-width="1.51"/><path d="M246,423L137,592L288,495Z" fill="#aedfc8" stroke="#aedfc8" stroke-width="1.51"/><path d="M125,889L239,953L286,883Z" fill="#91c0c9" stroke="#91c0c9" stroke-width="1.51"/><path d="M-189,-242L-49,-169L176,-223Z" fill="#eaf7e4" stroke="#eaf7e4" stroke-width="1.51"/><path d="M97,958L83,1105L239,953Z" fill="#8fb8c8" stroke="#8fb8c8" stroke-width="1.51"/><path d="M173,294L83,369L246,423Z" fill="#bee6c5" stroke="#bee6c5" stroke-width="1.51"/><path d="M83,369L137,592L246,423Z" fill="#b5e1c9" stroke="#b5e1c9" stroke-width="1.51"/><path d="M125,889L97,958L239,953Z" fill="#92bfcb" stroke="#92bfcb" stroke-width="1.51"/><path d="M3,409L33,575L83,369Z" fill="#bae4cd" stroke="#bae4cd" stroke-width="1.51"/><path d="M9,794L125,889L133,700Z" fill="#9ccdd4" stroke="#9ccdd4" stroke-width="1.51"/><path d="M83,369L33,575L137,592Z" fill="#b2e0cd" stroke="#b2e0cd" stroke-width="1.51"/><path d="M22,-66L138,-16L176,-223Z" fill="#e0f3da" stroke="#e0f3da" stroke-width="1.51"/><path d="M-49,-169L22,-66L176,-223Z" fill="#e5f5df" stroke="#e5f5df" stroke-width="1.51"/><path d="M138,-16L-61,78L183,53Z" fill="#daf0d3" stroke="#daf0d3" stroke-width="1.51"/><path d="M-42,258L173,294L183,53Z" fill="#ceeccb" stroke="#ceeccb" stroke-width="1.51"/><path d="M-61,78L-42,258L183,53Z" fill="#d8f0d1" stroke="#d8f0d1" stroke-width="1.51"/><path d="M-42,258L83,369L173,294Z" fill="#c6e9c8" stroke="#c6e9c8" stroke-width="1.51"/><path d="M83,1105L-55,1182L129,1294Z" fill="#8aa6c1" stroke="#8aa6c1" stroke-width="1.51"/><path d="M33,575L-45,667L133,700Z" fill="#a9d9d4" stroke="#a9d9d4" stroke-width="1.51"/><path d="M33,575L133,700L137,592Z" fill="#a8dad1" stroke="#a8dad1" stroke-width="1.51"/><path d="M22,-66L-61,78L138,-16Z" fill="#def2d8" stroke="#def2d8" stroke-width="1.51"/><path d="M-55,1182L-69,1307L129,1294Z" fill="#88a0bb" stroke="#88a0bb" stroke-width="1.51"/><path d="M-45,667L9,794L133,700Z" fill="#a3d5d7" stroke="#a3d5d7" stroke-width="1.51"/><path d="M24,942L83,1105L97,958Z" fill="#91b9cb" stroke="#91b9cb" stroke-width="1.51"/><path d="M24,942L97,958L125,889Z" fill="#94c0cd" stroke="#94c0cd" stroke-width="1.51"/><path d="M9,794L24,942L125,889Z" fill="#99c5d2" stroke="#99c5d2" stroke-width="1.51"/><path d="M-42,258L3,409L83,369Z" fill="#c5e8ca" stroke="#c5e8ca" stroke-width="1.51"/><path d="M24,942L-128,1106L83,1105Z" fill="#92b6cb" stroke="#92b6cb" stroke-width="1.51"/><path d="M-128,1106L-55,1182L83,1105Z" fill="#8faec9" stroke="#8faec9" stroke-width="1.51"/><path d="M-61,78L-112,106L-42,258Z" fill="#daf1d3" stroke="#daf1d3" stroke-width="1.51"/><path d="M-174,948L-128,1106L24,942Z" fill="#98bcd1" stroke="#98bcd1" stroke-width="1.51"/><path d="M9,794L-111,872L24,942Z" fill="#9cc8d4" stroke="#9cc8d4" stroke-width="1.51"/><path d="M-137,650L-45,667L33,575Z" fill="#addbd7" stroke="#addbd7" stroke-width="1.51"/><path d="M-190,519L-137,650L33,575Z" fill="#b3dfd6" stroke="#b3dfd6" stroke-width="1.51"/><path d="M3,409L-190,519L33,575Z" fill="#b9e3d2" stroke="#b9e3d2" stroke-width="1.51"/><path d="M-219,-19L-61,78L22,-66Z" fill="#e2f4dc" stroke="#e2f4dc" stroke-width="1.51"/><path d="M-111,872L-174,948L24,942Z" fill="#9bc3d3" stroke="#9bc3d3" stroke-width="1.51"/><path d="M-49,-169L-219,-19L22,-66Z" fill="#e6f5e0" stroke="#e6f5e0" stroke-width="1.51"/><path d="M-42,258L-221,389L3,409Z" fill="#c8e9cd" stroke="#c8e9cd" stroke-width="1.51"/><path d="M-45,667L-111,872L9,794Z" fill="#a2d1da" stroke="#a2d1da" stroke-width="1.51"/><path d="M-137,650L-111,872L-45,667Z" fill="#a8d6dc" stroke="#a8d6dc" stroke-width="1.51"/><path d="M-221,389L-190,519L3,409Z" fill="#c1e7d3" stroke="#c1e7d3" stroke-width="1.51"/><path d="M-219,-19L-112,106L-61,78Z" fill="#e1f4da" stroke="#e1f4da" stroke-width="1.51"/><path d="M-154,1318L-69,1307L-55,1182Z" fill="#8ca0be" stroke="#8ca0be" stroke-width="1.51"/><path d="M-189,-242L-219,-19L-49,-169Z" fill="#ecf8e6" stroke="#ecf8e6" stroke-width="1.51"/><path d="M-178,251L-221,389L-42,258Z" fill="#cfecd0" stroke="#cfecd0" stroke-width="1.51"/><path d="M-112,106L-178,251L-42,258Z" fill="#d6efd3" stroke="#d6efd3" stroke-width="1.51"/><path d="M-128,1106L-154,1318L-55,1182Z" fill="#8fa8c6" stroke="#8fa8c6" stroke-width="1.51"/><path d="M-219,-19L-178,251L-112,106Z" fill="#e0f3d9" stroke="#e0f3d9" stroke-width="1.51"/><path d="M-137,650L-174,948L-111,872Z" fill="#a3ceda" stroke="#a3ceda" stroke-width="1.51"/><path d="M-190,519L-174,948L-137,650Z" fill="#acd9de" stroke="#acd9de" stroke-width="1.51"/><path d="M-174,948L-154,1318L-128,1106Z" fill="#94b0cd" stroke="#94b0cd" stroke-width="1.51"/><path d="M-174,948L-221,389L-154,1318Z" fill="#a1c8d9" stroke="#a1c8d9" stroke-width="1.51"/><path d="M-219,-19L-221,389L-178,251Z" fill="#d9f1d6" stroke="#d9f1d6" stroke-width="1.51"/><path d="M-190,519L-221,389L-174,948Z" fill="#b4dedb" stroke="#b4dedb" stroke-width="1.51"/></svg>